SplineFontDB: 3.0
FontName: font3
FullName: font3 
FamilyName: font3
Weight: Medium
Copyright: Copyright (c) 2018, Timo Korvola
Version: 001.000
ItalicAngle: 0
UnderlinePosition: -153
UnderlineWidth: 51
Ascent: 768
Descent: 256
InvalidEm: 0
sfntRevision: 0x00010000
LayerCount: 2
Layer: 0 1 "Back" 1
Layer: 1 1 "Fore" 0
XUID: [1021 35 1583410931 10849849]
BaseHoriz: 1 'romn'
StyleMap: 0x0000
FSType: 0
OS2Version: 4
OS2_WeightWidthSlopeOnly: 0
OS2_UseTypoMetrics: 1
CreationTime: 1520371318
ModificationTime: 1520537870
PfmFamily: 81
TTFWeight: 500
TTFWidth: 5
LineGap: 0
VLineGap: 0
Panose: 2 0 6 9 0 0 0 0 0 0
OS2TypoAscent: 0
OS2TypoAOffset: 1
OS2TypoDescent: 0
OS2TypoDOffset: 1
OS2TypoLinegap: 0
OS2WinAscent: 768
OS2WinAOffset: 0
OS2WinDescent: -256
OS2WinDOffset: 0
HheadAscent: 768
HheadAOffset: 0
HheadDescent: -256
HheadDOffset: 0
OS2SubXSize: 665
OS2SubYSize: 716
OS2SubXOff: 0
OS2SubYOff: 143
OS2SupXSize: 665
OS2SupYSize: 716
OS2SupXOff: 0
OS2SupYOff: 491
OS2StrikeYSize: 51
OS2StrikeYPos: 265
OS2CapHeight: 768
OS2XHeight: 768
OS2FamilyClass: 3087
OS2Vendor: 'PfEd'
OS2CodePages: 00000001.00000000
OS2UnicodeRanges: 00000001.00000000.00000000.00000000
MarkAttachClasses: 1
DEI: 91125
ShortTable: cvt  2
  34
  648
EndShort
ShortTable: maxp 16
  1
  0
  98
  71
  5
  0
  0
  2
  0
  1
  1
  0
  64
  46
  0
  0
EndShort
LangName: 1033 "" "" "" "FontForge 2.0 : font3  : 6-3-2018"
GaspTable: 1 65535 2 0
Encoding: UnicodeBmp
UnicodeInterp: none
NameList: AGL For New Fonts
DisplaySize: -48
AntiAlias: 1
FitToEm: 0
WinInfo: 17 17 8
BeginPrivate: 0
EndPrivate
BeginChars: 65539 98

StartChar: .notdef
Encoding: 65536 -1 0
Width: 1024
Flags: W
LayerCount: 2
Fore
SplineSet
34 0 m 1,0,-1
 34 682 l 1,1,-1
 306 682 l 1,2,-1
 306 0 l 1,3,-1
 34 0 l 1,0,-1
68 34 m 1,4,-1
 272 34 l 1,5,-1
 272 648 l 1,6,-1
 68 648 l 1,7,-1
 68 34 l 1,4,-1
EndSplineSet
Validated: 1
EndChar

StartChar: U+0021
Encoding: 33 33 4
Width: 1024
Flags: W
LayerCount: 2
Back
Fore
SplineSet
147 397 m 0,0,1
 210 474 210 474 274 490.5 c 128,-1,2
 338 507 338 507 371 454 c 0,3,4
 392 422 392 422 444 385 c 128,-1,5
 496 348 496 348 565.5 317 c 128,-1,6
 635 286 635 286 704 269 c 0,7,8
 869 228 869 228 870 215 c 0,9,10
 870 203 870 203 762 197 c 0,11,12
 727 194 727 194 672 192 c 0,13,14
 557 187 557 187 470.5 141 c 128,-1,15
 384 95 384 95 384 38 c 0,16,17
 384 -102 384 -102 192 58 c 0,18,19
 113 123 113 123 85.5 172 c 128,-1,20
 58 221 58 221 72.5 272 c 128,-1,21
 87 323 87 323 147 397 c 0,0,1
EndSplineSet
Validated: 545
EndChar

StartChar: U+0022
Encoding: 34 34 5
Width: 1024
Flags: W
LayerCount: 2
Back
Fore
SplineSet
512 448 m 0,0,1
 512 589 512 589 704 429 c 0,2,3
 783 363 783 363 810.5 314 c 128,-1,4
 838 265 838 265 823.5 214 c 128,-1,5
 809 163 809 163 749 90 c 0,6,7
 686 13 686 13 622 -3.5 c 128,-1,8
 558 -20 558 -20 525 32 c 0,9,10
 493 82 493 82 395.5 136.5 c 128,-1,11
 298 191 298 191 192 218 c 0,12,13
 27 259 27 259 26 272 c 0,14,15
 26 283 26 283 134 290 c 0,16,17
 169 292 169 292 224 294 c 0,18,19
 339 300 339 300 425.5 346 c 128,-1,20
 512 392 512 392 512 448 c 0,0,1
EndSplineSet
Validated: 545
EndChar

StartChar: U+0023
Encoding: 35 35 6
Width: 1024
Flags: W
LayerCount: 2
Back
Fore
SplineSet
442 275 m 2,0,1
 576 420 576 420 698 545.5 c 128,-1,2
 820 671 820 671 897.5 745 c 128,-1,3
 975 819 975 819 986 819 c 0,4,5
 1031 819 1031 819 1012 780 c 0,6,7
 979 714 979 714 705 452 c 0,8,9
 613 364 613 364 474 233 c 2,10,-1
 -64 -269 l 1,11,-1
 442 275 l 2,0,1
EndSplineSet
Validated: 545
EndChar

StartChar: U+0024
Encoding: 36 36 7
Width: 1024
Flags: W
LayerCount: 2
Back
Fore
SplineSet
448 307 m 0,0,1
 142 621 142 621 38 764 c 0,2,3
 -2 819 -2 819 13 819 c 0,4,5
 39 819 39 819 204.5 668.5 c 128,-1,6
 370 518 370 518 576 307 c 0,7,8
 882 -7 882 -7 986 -150 c 0,9,10
 1026 -205 1026 -205 1011 -205 c 0,11,12
 994 -205 994 -205 912 -136 c 128,-1,13
 830 -67 830 -67 706.5 51 c 128,-1,14
 583 169 583 169 448 307 c 0,0,1
EndSplineSet
Validated: 545
EndChar

StartChar: U+0026
Encoding: 38 38 9
Width: 1024
Flags: W
LayerCount: 2
Back
Fore
SplineSet
224 218 m 0,0,1
 140 232 140 232 158 245 c 0,2,3
 192 269 192 269 512 269 c 0,4,5
 850 269 850 269 868 243 c 0,6,7
 876 231 876 231 800 218 c 0,8,9
 685 197 685 197 512 197 c 128,-1,10
 339 197 339 197 224 218 c 0,0,1
EndSplineSet
Validated: 545
EndChar

StartChar: U+0027
Encoding: 39 39 10
Width: 1024
Flags: W
LayerCount: 2
Back
Fore
SplineSet
224 346 m 0,0,1
 140 360 140 360 158 373 c 0,2,3
 192 397 192 397 512 397 c 0,4,5
 850 397 850 397 868 371 c 0,6,7
 876 359 876 359 800 346 c 0,8,9
 685 325 685 325 512 325 c 128,-1,10
 339 325 339 325 224 346 c 0,0,1
EndSplineSet
Validated: 545
EndChar

StartChar: U+0028
Encoding: 40 40 11
Width: 1024
Flags: W
LayerCount: 2
Back
Fore
SplineSet
550 307 m 0,0,1
 550 645 550 645 576 663 c 0,2,3
 588 671 588 671 601 597 c 1,4,-1
 602 595 l 1,5,6
 622 480 622 480 622 307 c 128,-1,7
 622 134 622 134 602 19 c 0,8,9
 587 -65 587 -65 574 -47 c 0,10,11
 550 -11 550 -11 550 307 c 0,0,1
EndSplineSet
Validated: 545
EndChar

StartChar: U+0029
Encoding: 41 41 12
Width: 1024
Flags: W
LayerCount: 2
Back
Fore
SplineSet
422 307 m 0,0,1
 422 645 422 645 448 663 c 0,2,3
 460 671 460 671 474 595 c 0,4,5
 494 480 494 480 494 307 c 128,-1,6
 494 134 494 134 474 19 c 0,7,8
 459 -65 459 -65 446 -47 c 0,9,10
 422 -12 422 -12 422 307 c 0,0,1
EndSplineSet
Validated: 545
EndChar

StartChar: U+002A
Encoding: 42 42 13
Width: 1024
Flags: W
LayerCount: 2
Back
Fore
SplineSet
525 666 m 0,0,1
 534 819 534 819 544.5 819 c 128,-1,2
 555 819 555 819 595 666 c 0,3,4
 618 579 618 579 701 496 c 128,-1,5
 784 413 784 413 870 390 c 0,6,7
 949 369 949 369 878 355 c 0,8,9
 783 336 783 336 512 339 c 0,10,11
 178 343 178 343 156 370 c 0,12,13
 149 380 149 380 192 390 c 0,14,15
 205 394 205 394 224 397 c 0,16,17
 339 417 339 417 429.5 498 c 128,-1,18
 520 579 520 579 525 666 c 0,0,1
EndSplineSet
Validated: 545
EndChar

StartChar: U+002B
Encoding: 43 43 14
Width: 1024
Flags: W
LayerCount: 2
Back
Fore
SplineSet
218 218 m 0,0,1
 136 232 136 232 155 246 c 0,2,3
 191 272 191 272 512 275 c 0,4,5
 855 279 855 279 902 251 c 0,6,7
 919 241 919 241 878 228 c 2,8,-1
 864 224 l 2,9,10
 768 199 768 199 700.5 120.5 c 128,-1,11
 633 42 633 42 627 -51 c 0,12,13
 618 -205 618 -205 607.5 -205 c 128,-1,14
 597 -205 597 -205 557 -51 c 0,15,16
 533 38 533 38 433 117.5 c 128,-1,17
 333 197 333 197 218 218 c 0,0,1
EndSplineSet
Validated: 545
EndChar

StartChar: U+002C
Encoding: 44 44 15
Width: 1024
Flags: W
LayerCount: 2
Back
Fore
SplineSet
544 307 m 0,0,1
 548 641 548 641 575 663 c 0,2,3
 585 671 585 671 595 627 c 0,4,5
 598 614 598 614 602 595 c 0,6,7
 622 480 622 480 702.5 390 c 128,-1,8
 783 300 783 300 870 294 c 0,9,10
 1024 285 1024 285 1024 275 c 128,-1,11
 1024 265 1024 265 870 224 c 0,12,13
 784 201 784 201 701 118 c 128,-1,14
 618 35 618 35 595 -51 c 0,15,16
 574 -130 574 -130 560 -58 c 0,17,18
 541 35 541 35 544 307 c 0,0,1
EndSplineSet
Validated: 545
EndChar

StartChar: U+002D
Encoding: 45 45 16
Width: 1024
Flags: W
LayerCount: 2
Back
Fore
SplineSet
384 569.5 m 128,-1,1
 384 675 384 675 402.5 747 c 128,-1,2
 421 819 421 819 448 819 c 0,3,4
 474 819 474 819 489 657.5 c 128,-1,5
 504 496 504 496 499 275 c 0,6,7
 492 -24 492 -24 461 -79 c 0,8,9
 446 -105 446 -105 431 -52 c 0,10,11
 430 -48 430 -48 429 -45 c 0,12,13
 404 51 404 51 325.5 119 c 128,-1,14
 247 187 247 187 154 192 c 0,15,16
 7 201 7 201 5 211 c 0,17,18
 5 217 5 217 27 225 c 0,19,20
 57 236 57 236 160 262 c 0,21,22
 255 287 255 287 319.5 375.5 c 128,-1,0
 384 464 384 464 384 569.5 c 128,-1,1
EndSplineSet
Validated: 545
EndChar

StartChar: U+002E
Encoding: 46 46 17
Width: 1024
Flags: W
LayerCount: 2
Back
Fore
SplineSet
403 531 m 0,0,1
 416 764 416 764 430 766 c 0,2,3
 439 768 439 768 452 709 c 0,4,5
 461 672 461 672 474 602 c 0,6,7
 485 540 485 540 515 484 c 128,-1,8
 545 428 545 428 588.5 384.5 c 128,-1,9
 632 341 632 341 688.5 310.5 c 128,-1,10
 745 280 745 280 806 269 c 0,11,12
 971 239 971 239 971 226 c 0,13,14
 971 211 971 211 736 198 c 0,15,16
 688 196 688 196 651.5 195.5 c 128,-1,17
 615 195 615 195 582 197.5 c 128,-1,18
 549 200 549 200 525.5 205 c 128,-1,19
 502 210 502 210 481.5 220 c 128,-1,20
 461 230 461 230 448 243 c 128,-1,21
 435 256 435 256 424.5 276.5 c 128,-1,22
 414 297 414 297 409.5 320.5 c 128,-1,23
 405 344 405 344 402 377.5 c 128,-1,24
 399 411 399 411 400 447 c 128,-1,25
 401 483 401 483 403 531 c 0,0,1
EndSplineSet
Validated: 545
EndChar

StartChar: U+002F
Encoding: 47 47 18
Width: 1024
Flags: W
LayerCount: 2
Back
Fore
SplineSet
403 83 m 0,0,1
 400 144 400 144 400 186.5 c 128,-1,2
 400 229 400 229 405 267.5 c 128,-1,3
 410 306 410 306 420.5 328 c 128,-1,4
 431 350 431 350 448.5 371 c 128,-1,5
 466 392 466 392 491.5 399 c 128,-1,6
 517 406 517 406 552 414 c 128,-1,7
 587 422 587 422 633 419 c 128,-1,8
 679 416 679 416 736 416 c 0,9,10
 968 403 968 403 971 389 c 0,11,12
 973 380 973 380 914 367 c 2,13,-1
 806 346 l 2,14,15
 682 323 682 323 589 230.5 c 128,-1,16
 496 138 496 138 474 13 c 0,17,18
 444 -152 444 -152 431 -152 c 0,19,20
 416 -152 416 -152 403 81 c 0,21,22
 403 82 403 82 403 83 c 0,0,1
EndSplineSet
Validated: 545
EndChar

StartChar: U+0030
Encoding: 48 48 19
Width: 1024
Flags: W
LayerCount: 2
Back
Fore
SplineSet
218 346 m 0,0,1
 53 375 53 375 53 388 c 0,2,3
 53 403 53 403 286 416 c 1,4,-1
 287 416 l 1,5,-1
 288 416 l 2,6,7
 336 419 336 419 372.5 419.5 c 128,-1,8
 409 420 409 420 442 417.5 c 128,-1,9
 475 415 475 415 498.5 410 c 128,-1,10
 522 405 522 405 542.5 394.5 c 128,-1,11
 563 384 563 384 576 371 c 128,-1,12
 589 358 589 358 599.5 337.5 c 128,-1,13
 610 317 610 317 614.5 294 c 128,-1,14
 619 271 619 271 622 237.5 c 128,-1,15
 625 204 625 204 624 168 c 128,-1,16
 623 132 623 132 621 83 c 0,17,18
 608 -149 608 -149 594 -152 c 0,19,20
 585 -153 585 -153 572 -95 c 0,21,22
 563 -58 563 -58 550 13 c 0,23,24
 528 138 528 138 435 230.5 c 128,-1,25
 342 323 342 323 218 346 c 0,0,1
EndSplineSet
Validated: 545
EndChar

StartChar: U+0031
Encoding: 49 49 20
Width: 1024
Flags: W
LayerCount: 2
Back
Fore
SplineSet
512 570 m 0,0,1
 512 675 512 675 530.5 747 c 128,-1,2
 549 819 549 819 576 819 c 128,-1,3
 603 819 603 819 621.5 726.5 c 128,-1,4
 640 634 640 634 640 499 c 0,5,6
 640 453 640 453 637.5 418 c 128,-1,7
 635 383 635 383 629.5 351.5 c 128,-1,8
 624 320 624 320 614.5 298.5 c 128,-1,9
 605 277 605 277 590.5 258 c 128,-1,10
 576 239 576 239 556 229 c 128,-1,11
 536 219 536 219 510 210 c 128,-1,12
 484 201 484 201 451 199 c 128,-1,13
 418 197 418 197 377.5 195.5 c 128,-1,14
 337 194 337 194 288 198 c 0,15,16
 46 212 46 212 46 225 c 0,17,18
 45 237 45 237 224 269 c 0,19,20
 358 293 358 293 435 373 c 128,-1,21
 512 453 512 453 512 570 c 0,0,1
EndSplineSet
Validated: 545
EndChar

StartChar: U+0032
Encoding: 50 50 21
Width: 1024
Flags: W
LayerCount: 2
Back
Fore
SplineSet
403 576 m 0,0,1
 417 793 417 793 426 799 c 0,2,3
 430 802 430 802 435 788 c 0,4,5
 445 759 445 759 474 595 c 0,6,7
 525 307 525 307 806 288 c 0,8,9
 986 276 986 276 986 264 c 0,10,11
 986 250 986 250 768 211 c 0,12,13
 634 187 634 187 467 109 c 128,-1,14
 300 31 300 31 192 -58 c 0,15,16
 15 -204 15 -204 0 -209 c 0,17,18
 -8 -212 -8 -212 -1 -200 c 0,19,20
 13 -177 13 -177 160 0 c 0,21,22
 251 109 251 109 323 280 c 128,-1,23
 395 451 395 451 403 576 c 0,0,1
EndSplineSet
Validated: 513
EndChar

StartChar: U+0033
Encoding: 51 51 22
Width: 1024
Flags: W
LayerCount: 2
Back
Fore
SplineSet
147 627 m 0,0,1
 1 804 1 804 -4 820 c 0,2,3
 -7 827 -7 827 5 820 c 0,4,5
 28 806 28 806 205 659 c 0,6,7
 314 568 314 568 485 496 c 128,-1,8
 656 424 656 424 781 416 c 0,9,10
 998 402 998 402 1004 393 c 0,11,12
 1006 389 1006 389 993 384 c 0,13,14
 965 375 965 375 800 346 c 0,15,16
 512 294 512 294 493 13 c 0,17,18
 481 -167 481 -167 468 -167 c 256,19,20
 455 -167 455 -167 416 51 c 0,21,22
 392 186 392 186 314 353 c 128,-1,23
 236 520 236 520 147 627 c 0,0,1
EndSplineSet
Validated: 513
EndChar

StartChar: U+0034
Encoding: 52 52 23
Width: 1024
Flags: W
LayerCount: 2
Back
Fore
SplineSet
768 627 m 0,0,1
 798 665 798 665 832 700.5 c 128,-1,2
 866 736 866 736 896.5 762 c 128,-1,3
 927 788 927 788 952.5 803.5 c 128,-1,4
 978 819 978 819 992 819 c 0,5,6
 1025 819 1025 819 968 731 c 0,7,8
 924 665 924 665 851 582 c 0,9,10
 795 519 795 519 743.5 422.5 c 128,-1,11
 692 326 692 326 659 223 c 128,-1,12
 626 120 626 120 621 38 c 0,13,14
 608 -174 608 -174 596 -177 c 0,15,16
 591 -179 591 -179 582 -143 c 0,17,18
 572 -106 572 -106 550 13 c 0,19,20
 528 138 528 138 435 230.5 c 128,-1,21
 342 323 342 323 218 346 c 0,22,23
 47 377 47 377 44 389 c 0,24,25
 42 396 42 396 81 401 c 0,26,27
 129 408 129 408 275 416 c 0,28,29
 419 424 419 424 561 485 c 128,-1,30
 703 546 703 546 768 627 c 0,0,1
EndSplineSet
Validated: 545
EndChar

StartChar: U+0035
Encoding: 53 53 24
Width: 1024
Flags: W
LayerCount: 2
Back
Fore
SplineSet
531 602 m 0,0,1
 543 781 543 781 556 781 c 256,2,3
 569 781 569 781 608 565 c 0,4,5
 608 564 608 564 608 563 c 0,6,7
 632 429 632 429 710 262 c 128,-1,8
 788 95 788 95 877 -13 c 0,9,10
 1023 -190 1023 -190 1028 -205 c 0,11,12
 1031 -212 1031 -212 1019 -206 c 0,13,14
 996 -192 996 -192 819 -45 c 0,15,16
 710 46 710 46 539 118.5 c 128,-1,17
 368 191 368 191 243 198 c 0,18,19
 26 212 26 212 20 221 c 0,20,21
 18 225 18 225 31 230 c 0,22,23
 59 239 59 239 224 269 c 0,24,25
 512 320 512 320 531 602 c 0,0,1
EndSplineSet
Validated: 513
EndChar

StartChar: U+0036
Encoding: 54 54 25
Width: 1024
Flags: W
LayerCount: 2
Back
Fore
SplineSet
0 307 m 1,0,-1
 0 819 l 1,1,-1
 512 819 l 1,2,-1
 1024 819 l 1,3,-1
 1024 307 l 1,4,-1
 1024 -205 l 1,5,-1
 512 -205 l 1,6,-1
 0 -205 l 1,7,-1
 0 307 l 1,0,-1
EndSplineSet
Validated: 513
EndChar

StartChar: U+0037
Encoding: 55 55 26
Width: 1024
Flags: W
LayerCount: 2
Back
Fore
SplineSet
0 499 m 0,0,1
 0 577 0 577 5 623.5 c 128,-1,2
 10 670 10 670 31.5 709.5 c 128,-1,3
 53 749 53 749 82.5 767.5 c 128,-1,4
 112 786 112 786 175.5 799.5 c 128,-1,5
 239 813 239 813 313 816 c 128,-1,6
 387 819 387 819 512 819 c 0,7,8
 586 819 586 819 638.5 818 c 128,-1,9
 691 817 691 817 742 813.5 c 128,-1,10
 793 810 793 810 826.5 805 c 128,-1,11
 860 800 860 800 891.5 789.5 c 128,-1,12
 923 779 923 779 941.5 767.5 c 128,-1,13
 960 756 960 756 976.5 736 c 128,-1,14
 993 716 993 716 1001 695.5 c 128,-1,15
 1009 675 1009 675 1015 643 c 128,-1,16
 1021 611 1021 611 1022.5 578 c 128,-1,17
 1024 545 1024 545 1024 499 c 0,18,19
 1024 421 1024 421 1019 375 c 128,-1,20
 1014 329 1014 329 992.5 289 c 128,-1,21
 971 249 971 249 941.5 230.5 c 128,-1,22
 912 212 912 212 848.5 198.5 c 128,-1,23
 785 185 785 185 711 182 c 128,-1,24
 637 179 637 179 512 179 c 0,25,26
 438 179 438 179 385.5 180 c 128,-1,27
 333 181 333 181 282 185 c 128,-1,28
 231 189 231 189 197.5 194 c 128,-1,29
 164 199 164 199 132.5 209 c 128,-1,30
 101 219 101 219 82.5 231 c 128,-1,31
 64 243 64 243 47.5 262.5 c 128,-1,32
 31 282 31 282 23 303 c 128,-1,33
 15 324 15 324 9 355.5 c 128,-1,34
 3 387 3 387 1.5 420 c 128,-1,35
 0 453 0 453 0 499 c 0,0,1
EndSplineSet
Validated: 513
EndChar

StartChar: U+0038
Encoding: 56 56 27
Width: 1024
Flags: W
LayerCount: 2
Back
Fore
SplineSet
0 115 m 128,-1,1
 0 161 0 161 1.5 194 c 128,-1,2
 3 227 3 227 9 259 c 128,-1,3
 15 291 15 291 23 311.5 c 128,-1,4
 31 332 31 332 47.5 352 c 128,-1,5
 64 372 64 372 82.5 383.5 c 128,-1,6
 101 395 101 395 132.5 405.5 c 128,-1,7
 164 416 164 416 197.5 421 c 128,-1,8
 231 426 231 426 282 429.5 c 128,-1,9
 333 433 333 433 385.5 434 c 128,-1,10
 438 435 438 435 512 435 c 128,-1,11
 586 435 586 435 638.5 434 c 128,-1,12
 691 433 691 433 742 429.5 c 128,-1,13
 793 426 793 426 826.5 421 c 128,-1,14
 860 416 860 416 891.5 405.5 c 128,-1,15
 923 395 923 395 941.5 383.5 c 128,-1,16
 960 372 960 372 976.5 352 c 128,-1,17
 993 332 993 332 1001 311.5 c 128,-1,18
 1009 291 1009 291 1015 259 c 128,-1,19
 1021 227 1021 227 1022.5 194 c 128,-1,20
 1024 161 1024 161 1024 115 c 0,21,22
 1024 37 1024 37 1019 -9 c 128,-1,23
 1014 -55 1014 -55 992.5 -95 c 128,-1,24
 971 -135 971 -135 941.5 -153.5 c 128,-1,25
 912 -172 912 -172 848.5 -185.5 c 128,-1,26
 785 -199 785 -199 711 -202 c 128,-1,27
 637 -205 637 -205 512 -205 c 0,28,29
 438 -205 438 -205 385.5 -204 c 128,-1,30
 333 -203 333 -203 282 -199 c 128,-1,31
 231 -195 231 -195 197.5 -190 c 128,-1,32
 164 -185 164 -185 132.5 -175 c 128,-1,33
 101 -165 101 -165 82.5 -153 c 128,-1,34
 64 -141 64 -141 47.5 -121.5 c 128,-1,35
 31 -102 31 -102 23 -81 c 128,-1,36
 15 -60 15 -60 9 -28.5 c 128,-1,37
 3 3 3 3 1.5 36 c 128,-1,0
 0 69 0 69 0 115 c 128,-1,1
EndSplineSet
Validated: 513
EndChar

StartChar: U+0039
Encoding: 57 57 28
Width: 1024
Flags: W
LayerCount: 2
Back
Fore
SplineSet
0 307 m 128,-1,1
 0 381 0 381 1 433.5 c 128,-1,2
 2 486 2 486 6 537 c 128,-1,3
 10 588 10 588 14.5 621.5 c 128,-1,4
 19 655 19 655 29.5 686.5 c 128,-1,5
 40 718 40 718 51.5 736.5 c 128,-1,6
 63 755 63 755 83 771.5 c 128,-1,7
 103 788 103 788 124 796 c 128,-1,8
 145 804 145 804 176.5 810 c 128,-1,9
 208 816 208 816 241 817.5 c 128,-1,10
 274 819 274 819 320 819 c 0,11,12
 398 819 398 819 444.5 814 c 128,-1,13
 491 809 491 809 530.5 788 c 128,-1,14
 570 767 570 767 588.5 737 c 128,-1,15
 607 707 607 707 620.5 643.5 c 128,-1,16
 634 580 634 580 637 506 c 128,-1,17
 640 432 640 432 640 307 c 0,18,19
 640 233 640 233 639 180.5 c 128,-1,20
 638 128 638 128 634 77.5 c 128,-1,21
 630 27 630 27 625.5 -6.5 c 128,-1,22
 621 -40 621 -40 610.5 -71.5 c 128,-1,23
 600 -103 600 -103 588.5 -121.5 c 128,-1,24
 577 -140 577 -140 557 -157 c 128,-1,25
 537 -174 537 -174 516 -182 c 128,-1,26
 495 -190 495 -190 463.5 -196 c 128,-1,27
 432 -202 432 -202 399 -203.5 c 128,-1,28
 366 -205 366 -205 320 -205 c 128,-1,29
 274 -205 274 -205 241 -203.5 c 128,-1,30
 208 -202 208 -202 176.5 -196 c 128,-1,31
 145 -190 145 -190 124 -182 c 128,-1,32
 103 -174 103 -174 83 -157 c 128,-1,33
 63 -140 63 -140 51.5 -121.5 c 128,-1,34
 40 -103 40 -103 29.5 -71.5 c 128,-1,35
 19 -40 19 -40 14.5 -6.5 c 128,-1,36
 10 27 10 27 6 77.5 c 128,-1,37
 2 128 2 128 1 180.5 c 128,-1,0
 0 233 0 233 0 307 c 128,-1,1
EndSplineSet
Validated: 513
EndChar

StartChar: U+003A
Encoding: 58 58 29
Width: 1024
Flags: W
LayerCount: 2
Back
Fore
SplineSet
384 307 m 128,-1,1
 384 381 384 381 385 433.5 c 128,-1,2
 386 486 386 486 390 537 c 128,-1,3
 394 588 394 588 398.5 621.5 c 128,-1,4
 403 655 403 655 413.5 686.5 c 128,-1,5
 424 718 424 718 435.5 736.5 c 128,-1,6
 447 755 447 755 467 771.5 c 128,-1,7
 487 788 487 788 508 796 c 128,-1,8
 529 804 529 804 560.5 810 c 128,-1,9
 592 816 592 816 625 817.5 c 128,-1,10
 658 819 658 819 704 819 c 128,-1,11
 750 819 750 819 783 817.5 c 128,-1,12
 816 816 816 816 847.5 810 c 128,-1,13
 879 804 879 804 900 796 c 128,-1,14
 921 788 921 788 941 771.5 c 128,-1,15
 961 755 961 755 972.5 736.5 c 128,-1,16
 984 718 984 718 994.5 686.5 c 128,-1,17
 1005 655 1005 655 1009.5 621.5 c 128,-1,18
 1014 588 1014 588 1018 537 c 128,-1,19
 1022 486 1022 486 1023 433.5 c 128,-1,20
 1024 381 1024 381 1024 307 c 128,-1,21
 1024 233 1024 233 1023 180.5 c 128,-1,22
 1022 128 1022 128 1018 77.5 c 128,-1,23
 1014 27 1014 27 1009.5 -6.5 c 128,-1,24
 1005 -40 1005 -40 994.5 -71.5 c 128,-1,25
 984 -103 984 -103 972.5 -121.5 c 128,-1,26
 961 -140 961 -140 941 -157 c 128,-1,27
 921 -174 921 -174 900 -182 c 128,-1,28
 879 -190 879 -190 847.5 -196 c 128,-1,29
 816 -202 816 -202 783 -203.5 c 128,-1,30
 750 -205 750 -205 704 -205 c 128,-1,31
 658 -205 658 -205 625 -203.5 c 128,-1,32
 592 -202 592 -202 560.5 -196 c 128,-1,33
 529 -190 529 -190 508 -182 c 128,-1,34
 487 -174 487 -174 467 -157 c 128,-1,35
 447 -140 447 -140 435.5 -121.5 c 128,-1,36
 424 -103 424 -103 413.5 -71.5 c 128,-1,37
 403 -40 403 -40 398.5 -6.5 c 128,-1,38
 394 27 394 27 390 77.5 c 128,-1,39
 386 128 386 128 385 180.5 c 128,-1,0
 384 233 384 233 384 307 c 128,-1,1
EndSplineSet
Validated: 513
EndChar

StartChar: U+003B
Encoding: 59 59 30
Width: 1024
Flags: W
LayerCount: 2
Back
Fore
SplineSet
525 659 m 0,0,1
 534 822 534 822 543.5 822 c 128,-1,2
 553 822 553 822 595 659 c 0,3,4
 620 563 620 563 689.5 499 c 128,-1,5
 759 435 759 435 838 435 c 0,6,7
 922 435 922 435 973 347 c 128,-1,8
 1024 259 1024 259 1024 115 c 0,9,10
 1024 37 1024 37 1019 -9 c 128,-1,11
 1014 -55 1014 -55 992.5 -95 c 128,-1,12
 971 -135 971 -135 941.5 -153.5 c 128,-1,13
 912 -172 912 -172 848.5 -185.5 c 128,-1,14
 785 -199 785 -199 711 -202 c 128,-1,15
 637 -205 637 -205 512 -205 c 0,16,17
 438 -205 438 -205 385.5 -204 c 128,-1,18
 333 -203 333 -203 282 -199 c 128,-1,19
 231 -195 231 -195 197.5 -190 c 128,-1,20
 164 -185 164 -185 132.5 -175 c 128,-1,21
 101 -165 101 -165 82.5 -153 c 128,-1,22
 64 -141 64 -141 47.5 -121.5 c 128,-1,23
 31 -102 31 -102 23 -81 c 128,-1,24
 15 -60 15 -60 9 -28.5 c 128,-1,25
 3 3 3 3 1.5 36 c 128,-1,26
 0 69 0 69 0 115 c 0,27,28
 0 288 0 288 59 361.5 c 128,-1,29
 118 435 118 435 256 435 c 0,30,31
 371 435 371 435 445 496.5 c 128,-1,32
 519 558 519 558 525 659 c 0,0,1
EndSplineSet
Validated: 513
EndChar

StartChar: U+003C
Encoding: 60 60 31
Width: 1024
Flags: W
LayerCount: 2
Back
Fore
SplineSet
0 499 m 0,0,1
 0 577 0 577 5 623.5 c 128,-1,2
 10 670 10 670 31.5 709.5 c 128,-1,3
 53 749 53 749 82.5 767.5 c 128,-1,4
 112 786 112 786 175.5 799.5 c 128,-1,5
 239 813 239 813 313 816 c 128,-1,6
 387 819 387 819 512 819 c 0,7,8
 586 819 586 819 638.5 818 c 128,-1,9
 691 817 691 817 742 813.5 c 128,-1,10
 793 810 793 810 826.5 805 c 128,-1,11
 860 800 860 800 891.5 789.5 c 128,-1,12
 923 779 923 779 941.5 767.5 c 128,-1,13
 960 756 960 756 976.5 736 c 128,-1,14
 993 716 993 716 1001 695.5 c 128,-1,15
 1009 675 1009 675 1015 643 c 128,-1,16
 1021 611 1021 611 1022.5 578 c 128,-1,17
 1024 545 1024 545 1024 499 c 0,18,19
 1024 346 1024 346 974 262.5 c 128,-1,20
 924 179 924 179 832 179 c 0,21,22
 750 179 750 179 691.5 115 c 128,-1,23
 633 51 633 51 627 -45 c 0,24,25
 618 -208 618 -208 608.5 -208 c 128,-1,26
 599 -208 599 -208 557 -45 c 0,27,28
 541 17 541 17 495 68.5 c 128,-1,29
 449 120 449 120 384 149.5 c 128,-1,30
 319 179 319 179 250 179 c 0,31,32
 115 179 115 179 57.5 252.5 c 128,-1,33
 0 326 0 326 0 499 c 0,0,1
EndSplineSet
Validated: 513
EndChar

StartChar: U+003D
Encoding: 61 61 32
Width: 1024
Flags: W
LayerCount: 2
Back
Fore
SplineSet
0 307 m 128,-1,1
 0 381 0 381 1 433.5 c 128,-1,2
 2 486 2 486 6 537 c 128,-1,3
 10 588 10 588 14.5 621.5 c 128,-1,4
 19 655 19 655 29.5 686.5 c 128,-1,5
 40 718 40 718 51.5 736.5 c 128,-1,6
 63 755 63 755 83 771.5 c 128,-1,7
 103 788 103 788 124 796 c 128,-1,8
 145 804 145 804 176.5 810 c 128,-1,9
 208 816 208 816 241 817.5 c 128,-1,10
 274 819 274 819 320 819 c 0,11,12
 493 819 493 819 566.5 760 c 128,-1,13
 640 701 640 701 640 563 c 0,14,15
 640 448 640 448 701.5 374 c 128,-1,16
 763 300 763 300 864 294 c 0,17,18
 1027 285 1027 285 1027 275.5 c 128,-1,19
 1027 266 1027 266 864 224 c 0,20,21
 768 199 768 199 704 129.5 c 128,-1,22
 640 60 640 60 640 -19 c 0,23,24
 640 -103 640 -103 552 -154 c 128,-1,25
 464 -205 464 -205 320 -205 c 0,26,27
 274 -205 274 -205 241 -203.5 c 128,-1,28
 208 -202 208 -202 176.5 -196 c 128,-1,29
 145 -190 145 -190 124 -182 c 128,-1,30
 103 -174 103 -174 83 -157 c 128,-1,31
 63 -140 63 -140 51.5 -121.5 c 128,-1,32
 40 -103 40 -103 29.5 -71.5 c 128,-1,33
 19 -40 19 -40 14.5 -6.5 c 128,-1,34
 10 27 10 27 6 77.5 c 128,-1,35
 2 128 2 128 1 180.5 c 128,-1,0
 0 233 0 233 0 307 c 128,-1,1
EndSplineSet
Validated: 513
EndChar

StartChar: U+003E
Encoding: 62 62 33
Width: 1024
Flags: W
LayerCount: 2
Back
Fore
SplineSet
384 570 m 0,0,1
 384 704 384 704 457.5 761.5 c 128,-1,2
 531 819 531 819 704 819 c 0,3,4
 750 819 750 819 783 817.5 c 128,-1,5
 816 816 816 816 847.5 810 c 128,-1,6
 879 804 879 804 900 796 c 128,-1,7
 921 788 921 788 941 771.5 c 128,-1,8
 961 755 961 755 972.5 736.5 c 128,-1,9
 984 718 984 718 994.5 686.5 c 128,-1,10
 1005 655 1005 655 1009.5 621.5 c 128,-1,11
 1014 588 1014 588 1018 537 c 128,-1,12
 1022 486 1022 486 1023 433.5 c 128,-1,13
 1024 381 1024 381 1024 307 c 128,-1,14
 1024 233 1024 233 1023 180.5 c 128,-1,15
 1022 128 1022 128 1018 77.5 c 128,-1,16
 1014 27 1014 27 1009.5 -6.5 c 128,-1,17
 1005 -40 1005 -40 994.5 -71.5 c 128,-1,18
 984 -103 984 -103 972.5 -121.5 c 128,-1,19
 961 -140 961 -140 941 -157 c 128,-1,20
 921 -174 921 -174 900 -182 c 128,-1,21
 879 -190 879 -190 847.5 -196 c 128,-1,22
 816 -202 816 -202 783 -203.5 c 128,-1,23
 750 -205 750 -205 704 -205 c 0,24,25
 550 -205 550 -205 467 -155 c 128,-1,26
 384 -105 384 -105 384 -13 c 0,27,28
 384 69 384 69 320 128 c 128,-1,29
 256 187 256 187 160 192 c 0,30,31
 -3 201 -3 201 -3 210.5 c 128,-1,32
 -3 220 -3 220 160 262 c 0,33,34
 255 287 255 287 319.5 375.5 c 128,-1,35
 384 464 384 464 384 570 c 0,0,1
EndSplineSet
Validated: 513
EndChar

StartChar: U+003F
Encoding: 63 63 34
Width: 1024
Flags: W
LayerCount: 2
Back
Fore
SplineSet
384 499 m 128,-1,1
 384 565 384 565 389.5 612 c 128,-1,2
 395 659 395 659 410 696 c 128,-1,3
 425 733 425 733 447.5 755.5 c 128,-1,4
 470 778 470 778 507 793 c 128,-1,5
 544 808 544 808 591 813.5 c 128,-1,6
 638 819 638 819 704 819 c 128,-1,7
 770 819 770 819 817 813.5 c 128,-1,8
 864 808 864 808 901 793 c 128,-1,9
 938 778 938 778 960.5 755.5 c 128,-1,10
 983 733 983 733 998 696 c 128,-1,11
 1013 659 1013 659 1018.5 612 c 128,-1,12
 1024 565 1024 565 1024 499 c 128,-1,13
 1024 433 1024 433 1018.5 386.5 c 128,-1,14
 1013 340 1013 340 998 303 c 128,-1,15
 983 266 983 266 960.5 243 c 128,-1,16
 938 220 938 220 901 205.5 c 128,-1,17
 864 191 864 191 817 185 c 128,-1,18
 770 179 770 179 704 179 c 128,-1,19
 638 179 638 179 591 185 c 128,-1,20
 544 191 544 191 507 205.5 c 128,-1,21
 470 220 470 220 447.5 243 c 128,-1,22
 425 266 425 266 410 303 c 128,-1,23
 395 340 395 340 389.5 386.5 c 128,-1,0
 384 433 384 433 384 499 c 128,-1,1
EndSplineSet
Validated: 513
EndChar

StartChar: U+0040
Encoding: 64 64 35
Width: 1024
Flags: W
LayerCount: 2
Back
Fore
SplineSet
384 115 m 128,-1,1
 384 181 384 181 389.5 228 c 128,-1,2
 395 275 395 275 410 312 c 128,-1,3
 425 349 425 349 447.5 371.5 c 128,-1,4
 470 394 470 394 507 409 c 128,-1,5
 544 424 544 424 591 429.5 c 128,-1,6
 638 435 638 435 704 435 c 128,-1,7
 770 435 770 435 817 429.5 c 128,-1,8
 864 424 864 424 901 409 c 128,-1,9
 938 394 938 394 960.5 371.5 c 128,-1,10
 983 349 983 349 998 312 c 128,-1,11
 1013 275 1013 275 1018.5 228 c 128,-1,12
 1024 181 1024 181 1024 115 c 128,-1,13
 1024 49 1024 49 1018.5 2.5 c 128,-1,14
 1013 -44 1013 -44 998 -81 c 128,-1,15
 983 -118 983 -118 960.5 -141 c 128,-1,16
 938 -164 938 -164 901 -178.5 c 128,-1,17
 864 -193 864 -193 817 -199 c 128,-1,18
 770 -205 770 -205 704 -205 c 128,-1,19
 638 -205 638 -205 591 -199 c 128,-1,20
 544 -193 544 -193 507 -178.5 c 128,-1,21
 470 -164 470 -164 447.5 -141 c 128,-1,22
 425 -118 425 -118 410 -81 c 128,-1,23
 395 -44 395 -44 389.5 2.5 c 128,-1,0
 384 49 384 49 384 115 c 128,-1,1
EndSplineSet
Validated: 513
EndChar

StartChar: U+0041
Encoding: 65 65 36
Width: 1024
Flags: W
LayerCount: 2
Back
Fore
SplineSet
0 115 m 128,-1,1
 0 181 0 181 5.5 228 c 128,-1,2
 11 275 11 275 26 312 c 128,-1,3
 41 349 41 349 63.5 371.5 c 128,-1,4
 86 394 86 394 123 409 c 128,-1,5
 160 424 160 424 207 429.5 c 128,-1,6
 254 435 254 435 320 435 c 128,-1,7
 386 435 386 435 433 429.5 c 128,-1,8
 480 424 480 424 517 409 c 128,-1,9
 554 394 554 394 576.5 371.5 c 128,-1,10
 599 349 599 349 614 312 c 128,-1,11
 629 275 629 275 634.5 228 c 128,-1,12
 640 181 640 181 640 115 c 128,-1,13
 640 49 640 49 634.5 2.5 c 128,-1,14
 629 -44 629 -44 614 -81 c 128,-1,15
 599 -118 599 -118 576.5 -141 c 128,-1,16
 554 -164 554 -164 517 -178.5 c 128,-1,17
 480 -193 480 -193 433 -199 c 128,-1,18
 386 -205 386 -205 320 -205 c 128,-1,19
 254 -205 254 -205 207 -199 c 128,-1,20
 160 -193 160 -193 123 -178.5 c 128,-1,21
 86 -164 86 -164 63.5 -141 c 128,-1,22
 41 -118 41 -118 26 -81 c 128,-1,23
 11 -44 11 -44 5.5 2.5 c 128,-1,0
 0 49 0 49 0 115 c 128,-1,1
EndSplineSet
Validated: 513
EndChar

StartChar: U+0042
Encoding: 66 66 37
Width: 1024
Flags: W
LayerCount: 2
Back
Fore
SplineSet
0 499 m 128,-1,1
 0 565 0 565 5.5 612 c 128,-1,2
 11 659 11 659 26 696 c 128,-1,3
 41 733 41 733 63.5 755.5 c 128,-1,4
 86 778 86 778 123 793 c 128,-1,5
 160 808 160 808 207 813.5 c 128,-1,6
 254 819 254 819 320 819 c 0,7,8
 376 819 376 819 418 814.5 c 128,-1,9
 460 810 460 810 495 800.5 c 128,-1,10
 530 791 530 791 553.5 773.5 c 128,-1,11
 577 756 577 756 594.5 732.5 c 128,-1,12
 612 709 612 709 621.5 674.5 c 128,-1,13
 631 640 631 640 635.5 598 c 128,-1,14
 640 556 640 556 640 499 c 0,15,16
 640 433 640 433 634.5 386.5 c 128,-1,17
 629 340 629 340 614 303 c 128,-1,18
 599 266 599 266 576.5 243 c 128,-1,19
 554 220 554 220 517 205.5 c 128,-1,20
 480 191 480 191 433 185 c 128,-1,21
 386 179 386 179 320 179 c 128,-1,22
 254 179 254 179 207 185 c 128,-1,23
 160 191 160 191 123 205.5 c 128,-1,24
 86 220 86 220 63.5 243 c 128,-1,25
 41 266 41 266 26 303 c 128,-1,26
 11 340 11 340 5.5 386.5 c 128,-1,0
 0 433 0 433 0 499 c 128,-1,1
EndSplineSet
Validated: 513
EndChar

StartChar: U+0043
Encoding: 67 67 38
Width: 1024
Flags: W
LayerCount: 2
Back
Fore
SplineSet
384 544 m 0,0,1
 384 624 384 624 399.5 675.5 c 128,-1,2
 415 727 415 727 453 760 c 128,-1,3
 491 793 491 793 551 806 c 128,-1,4
 611 819 611 819 704 819 c 0,5,6
 770 819 770 819 817 813.5 c 128,-1,7
 864 808 864 808 901 793 c 128,-1,8
 938 778 938 778 960.5 755.5 c 128,-1,9
 983 733 983 733 998 696 c 128,-1,10
 1013 659 1013 659 1018.5 612 c 128,-1,11
 1024 565 1024 565 1024 499 c 0,12,13
 1024 406 1024 406 1010.5 346 c 128,-1,14
 997 286 997 286 964.5 248 c 128,-1,15
 932 210 932 210 880.5 194.5 c 128,-1,16
 829 179 829 179 749 179 c 0,17,18
 634 179 634 179 475.5 114 c 128,-1,19
 317 49 317 49 205 -45 c 0,20,21
 3 -213 3 -213 -2.5 -207.5 c 128,-1,22
 -8 -202 -8 -202 160 0 c 0,23,24
 254 113 254 113 319 271 c 128,-1,25
 384 429 384 429 384 544 c 0,0,1
EndSplineSet
Validated: 545
EndChar

StartChar: U+0044
Encoding: 68 68 39
Width: 1024
Flags: W
LayerCount: 2
Back
Fore
SplineSet
160 614 m 0,0,1
 -8 816 -8 816 -2.5 821.5 c 128,-1,2
 3 827 3 827 205 659 c 0,3,4
 317 565 317 565 475.5 500 c 128,-1,5
 634 435 634 435 749 435 c 0,6,7
 829 435 829 435 880.5 419.5 c 128,-1,8
 932 404 932 404 964.5 366 c 128,-1,9
 997 328 997 328 1010.5 268 c 128,-1,10
 1024 208 1024 208 1024 115 c 0,11,12
 1024 49 1024 49 1018.5 2.5 c 128,-1,13
 1013 -44 1013 -44 998 -81 c 128,-1,14
 983 -118 983 -118 960.5 -141 c 128,-1,15
 938 -164 938 -164 901 -178.5 c 128,-1,16
 864 -193 864 -193 817 -199 c 128,-1,17
 770 -205 770 -205 704 -205 c 0,18,19
 611 -205 611 -205 551 -191.5 c 128,-1,20
 491 -178 491 -178 453 -145.5 c 128,-1,21
 415 -113 415 -113 399.5 -61.5 c 128,-1,22
 384 -10 384 -10 384 70 c 0,23,24
 384 186 384 186 319 344 c 128,-1,25
 254 502 254 502 160 614 c 0,0,1
EndSplineSet
Validated: 545
EndChar

StartChar: U+0045
Encoding: 69 69 40
Width: 1024
Flags: W
LayerCount: 2
Back
Fore
SplineSet
768 627 m 0,0,1
 798 665 798 665 832 700.5 c 128,-1,2
 866 736 866 736 896.5 762 c 128,-1,3
 927 788 927 788 952.5 803.5 c 128,-1,4
 978 819 978 819 992 819 c 0,5,6
 1025 819 1025 819 968 731 c 0,7,8
 924 665 924 665 851 582 c 0,9,10
 763 483 763 483 701.5 334.5 c 128,-1,11
 640 186 640 186 640 70 c 0,12,13
 640 -10 640 -10 624.5 -61.5 c 128,-1,14
 609 -113 609 -113 571 -145.5 c 128,-1,15
 533 -178 533 -178 473 -191.5 c 128,-1,16
 413 -205 413 -205 320 -205 c 0,17,18
 254 -205 254 -205 207 -199 c 128,-1,19
 160 -193 160 -193 123 -178.5 c 128,-1,20
 86 -164 86 -164 63.5 -141 c 128,-1,21
 41 -118 41 -118 26 -81 c 128,-1,22
 11 -44 11 -44 5.5 2.5 c 128,-1,23
 0 49 0 49 0 115 c 128,-1,24
 0 181 0 181 5.5 228 c 128,-1,25
 11 275 11 275 25 312 c 128,-1,26
 39 349 39 349 61 371.5 c 128,-1,27
 83 394 83 394 118.5 409 c 128,-1,28
 154 424 154 424 199 429.5 c 128,-1,29
 244 435 244 435 307 435 c 0,30,31
 432 435 432 435 569 492 c 128,-1,32
 706 549 706 549 768 627 c 0,0,1
EndSplineSet
Validated: 545
EndChar

StartChar: U+0046
Encoding: 70 70 41
Width: 1024
Flags: W
LayerCount: 2
Back
Fore
SplineSet
0 499 m 0,0,1
 0 565 0 565 5.5 612 c 128,-1,2
 11 659 11 659 26 696 c 128,-1,3
 41 733 41 733 63.5 755.5 c 128,-1,4
 86 778 86 778 123 793 c 128,-1,5
 160 808 160 808 207 813.5 c 128,-1,6
 254 819 254 819 320 819 c 0,7,8
 413 819 413 819 473 806 c 128,-1,9
 533 793 533 793 571 760 c 128,-1,10
 609 727 609 727 624.5 675.5 c 128,-1,11
 640 624 640 624 640 544 c 0,12,13
 640 429 640 429 705 271 c 128,-1,14
 770 113 770 113 864 0 c 0,15,16
 1032 -202 1032 -202 1026.5 -207.5 c 128,-1,17
 1021 -213 1021 -213 819 -45 c 0,18,19
 707 49 707 49 548.5 114 c 128,-1,20
 390 179 390 179 275 179 c 0,21,22
 195 179 195 179 143.5 194.5 c 128,-1,23
 92 210 92 210 59.5 248 c 128,-1,24
 27 286 27 286 13.5 346 c 128,-1,25
 0 406 0 406 0 499 c 0,0,1
EndSplineSet
Validated: 545
EndChar

StartChar: U+0047
Encoding: 71 71 42
Width: 1024
InSpiro: 1
Flags: W
LayerCount: 2
Back
Fore
SplineSet
896 640 m 1,0,-1
 896 767 l 1,1,-1
 1024 767 l 1,2,-1
 1024 640 l 1,3,-1
 896 640 l 1,0,-1
  Spiro
    896 767 v
    1024 767 v
    1024 640 v
    896 640 v
    0 0 z
  EndSpiro
EndSplineSet
Validated: 513
EndChar

StartChar: U+0048
Encoding: 72 72 43
Width: 1024
Flags: W
LayerCount: 2
Back
Fore
SplineSet
898 -124 m 1,0,-1
 1024 -124 l 5,1,-1
 1024 -256 l 1,2,-1
 898 -256 l 1,3,-1
 898 -124 l 1,0,-1
EndSplineSet
Validated: 513
EndChar

StartChar: U+0049
Encoding: 73 73 44
Width: 1024
Flags: W
LayerCount: 2
Back
Fore
SplineSet
-3 -124 m 1,0,-1
 126 -127 l 1,1,-1
 126 -256 l 1,2,-1
 0 -256 l 1,3,-1
 -3 -124 l 1,0,-1
EndSplineSet
Validated: 513
EndChar

StartChar: U+004A
Encoding: 74 74 45
Width: 1024
Flags: W
LayerCount: 2
Back
Fore
SplineSet
-3 773 m 5,0,-1
 126 770 l 5,1,-1
 126 641 l 5,2,-1
 0 641 l 5,3,-1
 -3 773 l 5,0,-1
EndSplineSet
Validated: 513
EndChar

StartChar: U+004B
Encoding: 75 75 46
Width: 1024
Flags: W
LayerCount: 2
Back
Fore
SplineSet
224 730 m 0,0,1
 140 744 140 744 158 757 c 0,2,3
 192 781 192 781 512 781 c 0,4,5
 850 781 850 781 868 755 c 0,6,7
 876 743 876 743 802 730 c 0,8,9
 801 730 801 730 800 730 c 0,10,11
 685 709 685 709 512 709 c 128,-1,12
 339 709 339 709 224 730 c 0,0,1
EndSplineSet
Validated: 545
EndChar

StartChar: U+004C
Encoding: 76 76 47
Width: 1024
Flags: W
LayerCount: 2
Back
Fore
SplineSet
224 -166 m 0,0,1
 140 -152 140 -152 158 -139 c 0,2,3
 192 -115 192 -115 512 -115 c 0,4,5
 850 -115 850 -115 868 -141 c 0,6,7
 876 -153 876 -153 800 -166 c 0,8,9
 685 -187 685 -187 512 -187 c 128,-1,10
 339 -187 339 -187 224 -166 c 0,0,1
EndSplineSet
Validated: 545
EndChar

StartChar: U+004D
Encoding: 77 77 48
Width: 1024
Flags: W
LayerCount: 2
Back
Fore
SplineSet
38 307 m 0,0,1
 38 645 38 645 64 663 c 0,2,3
 76 671 76 671 89 597 c 0,4,5
 89 596 89 596 90 595 c 0,6,7
 110 480 110 480 110 307 c 128,-1,8
 110 134 110 134 90 19 c 0,9,10
 75 -65 75 -65 62 -47 c 0,11,12
 38 -12 38 -12 38 307 c 0,0,1
EndSplineSet
Validated: 545
EndChar

StartChar: U+004E
Encoding: 78 78 49
Width: 1024
Flags: W
LayerCount: 2
Back
Fore
SplineSet
934 307 m 0,0,1
 934 645 934 645 960 663 c 0,2,3
 972 671 972 671 985 597 c 1,4,-1
 986 595 l 1,5,6
 1006 480 1006 480 1006 307 c 128,-1,7
 1006 134 1006 134 986 19 c 0,8,9
 971 -65 971 -65 958 -47 c 0,10,11
 934 -11 934 -11 934 307 c 0,0,1
EndSplineSet
Validated: 545
EndChar

StartChar: U+004F
Encoding: 79 79 50
Width: 1024
Flags: W
LayerCount: 2
Back
Fore
SplineSet
224 -38 m 0,0,1
 140 -24 140 -24 158 -11 c 0,2,3
 192 13 192 13 512 13 c 0,4,5
 850 13 850 13 868 -13 c 0,6,7
 876 -25 876 -25 800 -38 c 0,8,9
 685 -59 685 -59 512 -59 c 128,-1,10
 339 -59 339 -59 224 -38 c 0,0,1
224 602 m 0,11,12
 140 616 140 616 158 629 c 0,13,14
 192 653 192 653 512 653 c 0,15,16
 850 653 850 653 868 627 c 0,17,18
 876 615 876 615 802 602 c 0,19,20
 801 602 801 602 800 602 c 0,21,22
 685 581 685 581 512 581 c 128,-1,23
 339 581 339 581 224 602 c 0,11,12
EndSplineSet
Validated: 545
EndChar

StartChar: U+0050
Encoding: 80 80 51
Width: 1024
Flags: W
LayerCount: 2
Back
Fore
SplineSet
0 307 m 128,-1,1
 0 371 0 371 0.5 408.5 c 128,-1,2
 1 446 1 446 7 489 c 128,-1,3
 13 532 13 532 17.5 553.5 c 128,-1,4
 22 575 22 575 41 600.5 c 128,-1,5
 60 626 60 626 75 636 c 128,-1,6
 90 646 90 646 126.5 658 c 128,-1,7
 163 670 163 670 194 672 c 128,-1,8
 225 674 225 674 286.5 676 c 128,-1,9
 348 678 348 678 401 676.5 c 128,-1,10
 454 675 454 675 544 672 c 2,11,-1
 1088 653 l 1,12,-1
 608 602 l 2,13,14
 465 586 465 586 375.5 565.5 c 128,-1,15
 286 545 286 545 229 510 c 128,-1,16
 172 475 172 475 150 427 c 128,-1,17
 128 379 128 379 128 307 c 128,-1,18
 128 235 128 235 150 187 c 128,-1,19
 172 139 172 139 229 104.5 c 128,-1,20
 286 70 286 70 375.5 49 c 128,-1,21
 465 28 465 28 608 13 c 2,22,-1
 1088 -38 l 1,23,-1
 544 -58 l 2,24,25
 454 -61 454 -61 401 -62.5 c 128,-1,26
 348 -64 348 -64 286.5 -62 c 128,-1,27
 225 -60 225 -60 194 -57.5 c 128,-1,28
 163 -55 163 -55 126.5 -43.5 c 128,-1,29
 90 -32 90 -32 75 -21.5 c 128,-1,30
 60 -11 60 -11 41 14 c 128,-1,31
 22 39 22 39 17.5 61 c 128,-1,32
 13 83 13 83 7 126 c 128,-1,33
 1 169 1 169 0.5 206 c 128,-1,0
 0 243 0 243 0 307 c 128,-1,1
EndSplineSet
Validated: 545
EndChar

StartChar: U+0051
Encoding: 81 81 52
Width: 1024
Flags: W
LayerCount: 2
Back
Fore
SplineSet
0 307 m 128,-1,1
 0 371 0 371 0.5 408.5 c 128,-1,2
 1 446 1 446 7 489 c 128,-1,3
 13 532 13 532 17.5 553.5 c 128,-1,4
 22 575 22 575 41 600.5 c 128,-1,5
 60 626 60 626 75 636 c 128,-1,6
 90 646 90 646 126.5 658 c 128,-1,7
 163 670 163 670 194 672 c 128,-1,8
 225 674 225 674 286.5 676 c 128,-1,9
 348 678 348 678 401 676.5 c 128,-1,10
 454 675 454 675 544 672 c 0,11,12
 917 659 917 659 922 645 c 0,13,14
 924 640 924 640 895 634 c 0,15,16
 846 623 846 623 666 600 c 0,17,18
 579 589 579 589 506.5 567.5 c 128,-1,19
 434 546 434 546 382.5 518 c 128,-1,20
 331 490 331 490 295 455 c 128,-1,21
 259 420 259 420 241.5 383 c 128,-1,22
 224 346 224 346 224 307 c 128,-1,23
 224 268 224 268 241.5 231 c 128,-1,24
 259 194 259 194 295 159.5 c 128,-1,25
 331 125 331 125 382.5 96.5 c 128,-1,26
 434 68 434 68 506.5 46.5 c 128,-1,27
 579 25 579 25 666 14 c 0,28,29
 922 -18 922 -18 922 -30 c 0,30,31
 923 -40 923 -40 794 -47 c 0,32,33
 713 -52 713 -52 544 -58 c 0,34,35
 454 -61 454 -61 401 -62.5 c 128,-1,36
 348 -64 348 -64 286.5 -62 c 128,-1,37
 225 -60 225 -60 194 -57.5 c 128,-1,38
 163 -55 163 -55 126.5 -43.5 c 128,-1,39
 90 -32 90 -32 75 -21.5 c 128,-1,40
 60 -11 60 -11 41 14 c 128,-1,41
 22 39 22 39 17.5 61 c 128,-1,42
 13 83 13 83 7 126 c 128,-1,43
 1 169 1 169 0.5 206 c 128,-1,0
 0 243 0 243 0 307 c 128,-1,1
EndSplineSet
Validated: 545
EndChar

StartChar: U+0052
Encoding: 82 82 53
Width: 1024
Flags: W
LayerCount: 2
Back
Fore
SplineSet
0 307 m 128,-1,1
 0 371 0 371 0.5 408.5 c 128,-1,2
 1 446 1 446 7 489 c 128,-1,3
 13 532 13 532 17.5 553.5 c 128,-1,4
 22 575 22 575 41 600.5 c 128,-1,5
 60 626 60 626 75 636 c 128,-1,6
 90 646 90 646 126.5 658 c 128,-1,7
 163 670 163 670 194 672 c 128,-1,8
 225 674 225 674 286.5 676 c 128,-1,9
 348 678 348 678 401 676.5 c 128,-1,10
 454 675 454 675 544 672 c 0,11,12
 887 660 887 660 886 638 c 0,13,14
 886 623 886 623 736 602 c 0,15,16
 554 575 554 575 469 504 c 128,-1,17
 384 433 384 433 384 307 c 128,-1,18
 384 181 384 181 469 110 c 128,-1,19
 554 39 554 39 736 13 c 0,20,21
 888 -9 888 -9 886 -24 c 0,22,23
 884 -46 884 -46 544 -58 c 0,24,25
 454 -61 454 -61 401 -62.5 c 128,-1,26
 348 -64 348 -64 286.5 -62 c 128,-1,27
 225 -60 225 -60 194 -57.5 c 128,-1,28
 163 -55 163 -55 126.5 -43.5 c 128,-1,29
 90 -32 90 -32 75 -21.5 c 128,-1,30
 60 -11 60 -11 41 14 c 128,-1,31
 22 39 22 39 17.5 61 c 128,-1,32
 13 83 13 83 7 126 c 128,-1,33
 1 169 1 169 0.5 206 c 128,-1,0
 0 243 0 243 0 307 c 128,-1,1
EndSplineSet
Validated: 545
EndChar

StartChar: U+0053
Encoding: 83 83 54
Width: 1024
Flags: W
LayerCount: 2
Back
Fore
SplineSet
0 307 m 128,-1,1
 0 371 0 371 0.5 408.5 c 128,-1,2
 1 446 1 446 7 489 c 128,-1,3
 13 532 13 532 17.5 553.5 c 128,-1,4
 22 575 22 575 41 600.5 c 128,-1,5
 60 626 60 626 75 636 c 128,-1,6
 90 646 90 646 126.5 658 c 128,-1,7
 163 670 163 670 194 672 c 128,-1,8
 225 674 225 674 286.5 676 c 128,-1,9
 348 678 348 678 401 676.5 c 128,-1,10
 454 675 454 675 544 672 c 0,11,12
 829 662 829 662 862 631 c 0,13,14
 875 620 875 620 841 608 c 0,15,16
 823 602 823 602 794 597 c 0,17,18
 731 585 731 585 679.5 560 c 128,-1,19
 628 535 628 535 594.5 502.5 c 128,-1,20
 561 470 561 470 538 430.5 c 128,-1,21
 515 391 515 391 509.5 349 c 128,-1,22
 504 307 504 307 509.5 265 c 128,-1,23
 515 223 515 223 538 184 c 128,-1,24
 561 145 561 145 594.5 112 c 128,-1,25
 628 79 628 79 679.5 54 c 128,-1,26
 731 29 731 29 794 18 c 0,27,28
 873 2 873 2 865 -14 c 0,29,30
 849 -44 849 -44 588 -56 c 0,31,32
 567 -57 567 -57 544 -58 c 0,33,34
 454 -61 454 -61 401 -62.5 c 128,-1,35
 348 -64 348 -64 286.5 -62 c 128,-1,36
 225 -60 225 -60 194 -57.5 c 128,-1,37
 163 -55 163 -55 126.5 -43.5 c 128,-1,38
 90 -32 90 -32 75 -21.5 c 128,-1,39
 60 -11 60 -11 41 14 c 128,-1,40
 22 39 22 39 17.5 61 c 128,-1,41
 13 83 13 83 7 126 c 128,-1,42
 1 169 1 169 0.5 206 c 128,-1,0
 0 243 0 243 0 307 c 128,-1,1
EndSplineSet
Validated: 545
EndChar

StartChar: U+0054
Encoding: 84 84 55
Width: 1024
Flags: W
LayerCount: 2
Back
Fore
SplineSet
0 307 m 0,0,1
 0 371 0 371 0.5 408.5 c 128,-1,2
 1 446 1 446 7 489 c 128,-1,3
 13 532 13 532 17.5 553.5 c 128,-1,4
 22 575 22 575 41 601 c 128,-1,5
 60 627 60 627 75 637 c 128,-1,6
 90 647 90 647 126.5 659.5 c 128,-1,7
 163 672 163 672 194 674.5 c 128,-1,8
 225 677 225 677 286.5 679.5 c 128,-1,9
 348 682 348 682 401 681.5 c 128,-1,10
 454 681 454 681 544 678 c 0,11,12
 839 671 839 671 894 639 c 0,13,14
 921 623 921 623 865 607 c 0,15,16
 861 606 861 606 858 605 c 0,17,18
 787 586 787 586 735.5 539 c 128,-1,19
 684 492 684 492 660.5 433 c 128,-1,20
 637 374 637 374 637 307 c 128,-1,21
 637 240 637 240 660.5 181 c 128,-1,22
 684 122 684 122 735.5 75 c 128,-1,23
 787 28 787 28 858 10 c 0,24,25
 938 -11 938 -11 878 -31 c 0,26,27
 798 -58 798 -58 544 -64 c 0,28,29
 431 -67 431 -67 369 -67.5 c 128,-1,30
 307 -68 307 -68 238.5 -62.5 c 128,-1,31
 170 -57 170 -57 140 -50.5 c 128,-1,32
 110 -44 110 -44 76 -21 c 128,-1,33
 42 2 42 2 32.5 23 c 128,-1,34
 23 44 23 44 12.5 92 c 128,-1,35
 2 140 2 140 1 183.5 c 128,-1,36
 0 227 0 227 0 307 c 0,0,1
EndSplineSet
Validated: 545
EndChar

StartChar: U+0055
Encoding: 85 85 56
Width: 1024
Flags: W
LayerCount: 2
Back
Fore
SplineSet
0 307 m 0,0,1
 0 371 0 371 0.5 408.5 c 128,-1,2
 1 446 1 446 7 489 c 128,-1,3
 13 532 13 532 17.5 553.5 c 128,-1,4
 22 575 22 575 41 601 c 128,-1,5
 60 627 60 627 75 637 c 128,-1,6
 90 647 90 647 126.5 659.5 c 128,-1,7
 163 672 163 672 194 674.5 c 128,-1,8
 225 677 225 677 286.5 679.5 c 128,-1,9
 348 682 348 682 401 681.5 c 128,-1,10
 454 681 454 681 544 678 c 0,11,12
 849 671 849 671 935 637 c 0,13,14
 976 621 976 621 934 604 c 0,15,16
 885 584 885 584 849.5 537 c 128,-1,17
 814 490 814 490 797.5 432 c 128,-1,18
 781 374 781 374 781 307.5 c 128,-1,19
 781 241 781 241 797.5 182.5 c 128,-1,20
 814 124 814 124 849.5 77 c 128,-1,21
 885 30 885 30 934 10 c 0,22,23
 988 -11 988 -11 906 -31 c 0,24,25
 796 -58 796 -58 544 -64 c 0,26,27
 431 -67 431 -67 369 -67.5 c 128,-1,28
 307 -68 307 -68 238.5 -62.5 c 128,-1,29
 170 -57 170 -57 140 -50.5 c 128,-1,30
 110 -44 110 -44 76 -21 c 128,-1,31
 42 2 42 2 32.5 23 c 128,-1,32
 23 44 23 44 12.5 92 c 128,-1,33
 2 140 2 140 1 183.5 c 128,-1,34
 0 227 0 227 0 307 c 0,0,1
EndSplineSet
Validated: 545
EndChar

StartChar: U+0056
Encoding: 86 86 57
Width: 1024
Flags: W
LayerCount: 2
Back
Fore
SplineSet
0 307 m 128,-1,1
 0 366 0 366 1 405 c 128,-1,2
 2 444 2 444 7.5 484.5 c 128,-1,3
 13 525 13 525 19 548.5 c 128,-1,4
 25 572 25 572 40.5 596.5 c 128,-1,5
 56 621 56 621 71.5 633.5 c 128,-1,6
 87 646 87 646 117.5 658.5 c 128,-1,7
 148 671 148 671 178 676 c 128,-1,8
 208 681 208 681 258.5 685.5 c 128,-1,9
 309 690 309 690 357.5 690.5 c 128,-1,10
 406 691 406 691 480 691 c 128,-1,11
 554 691 554 691 602.5 690.5 c 128,-1,12
 651 690 651 690 701.5 685.5 c 128,-1,13
 752 681 752 681 782 676 c 128,-1,14
 812 671 812 671 842.5 658.5 c 128,-1,15
 873 646 873 646 888.5 633.5 c 128,-1,16
 904 621 904 621 919.5 596.5 c 128,-1,17
 935 572 935 572 941 548.5 c 128,-1,18
 947 525 947 525 952.5 484.5 c 128,-1,19
 958 444 958 444 959 405 c 128,-1,20
 960 366 960 366 960 307 c 128,-1,21
 960 248 960 248 959 209 c 128,-1,22
 958 170 958 170 952.5 130 c 128,-1,23
 947 90 947 90 941 66 c 128,-1,24
 935 42 935 42 919.5 17.5 c 128,-1,25
 904 -7 904 -7 888.5 -19.5 c 128,-1,26
 873 -32 873 -32 842.5 -44.5 c 128,-1,27
 812 -57 812 -57 782 -62 c 128,-1,28
 752 -67 752 -67 701.5 -71 c 128,-1,29
 651 -75 651 -75 602.5 -76 c 128,-1,30
 554 -77 554 -77 480 -77 c 128,-1,31
 406 -77 406 -77 357.5 -76 c 128,-1,32
 309 -75 309 -75 258.5 -71 c 128,-1,33
 208 -67 208 -67 178 -62 c 128,-1,34
 148 -57 148 -57 117.5 -44.5 c 128,-1,35
 87 -32 87 -32 71.5 -19.5 c 128,-1,36
 56 -7 56 -7 40.5 17.5 c 128,-1,37
 25 42 25 42 19 66 c 128,-1,38
 13 90 13 90 7.5 130 c 128,-1,39
 2 170 2 170 1 209 c 128,-1,0
 0 248 0 248 0 307 c 128,-1,1
EndSplineSet
Validated: 513
EndChar

StartChar: U+0057
Encoding: 87 87 58
Width: 1024
Flags: W
LayerCount: 2
Back
Fore
SplineSet
0 307.5 m 128,-1,1
 0 369 0 369 0.5 407 c 128,-1,2
 1 445 1 445 7 486.5 c 128,-1,3
 13 528 13 528 18.5 551 c 128,-1,4
 24 574 24 574 41 599.5 c 128,-1,5
 58 625 58 625 73.5 636.5 c 128,-1,6
 89 648 89 648 122.5 660.5 c 128,-1,7
 156 673 156 673 186.5 677.5 c 128,-1,8
 217 682 217 682 272.5 686 c 128,-1,9
 328 690 328 690 379 690.5 c 128,-1,10
 430 691 430 691 512 691 c 128,-1,11
 594 691 594 691 645 690.5 c 128,-1,12
 696 690 696 690 751.5 686 c 128,-1,13
 807 682 807 682 837.5 677.5 c 128,-1,14
 868 673 868 673 901.5 660.5 c 128,-1,15
 935 648 935 648 950.5 636.5 c 128,-1,16
 966 625 966 625 983 599.5 c 128,-1,17
 1000 574 1000 574 1005.5 551 c 128,-1,18
 1011 528 1011 528 1017 486.5 c 128,-1,19
 1023 445 1023 445 1023.5 407 c 128,-1,20
 1024 369 1024 369 1024 307.5 c 128,-1,21
 1024 246 1024 246 1023.5 207.5 c 128,-1,22
 1023 169 1023 169 1017 127.5 c 128,-1,23
 1011 86 1011 86 1005.5 63 c 128,-1,24
 1000 40 1000 40 983 15 c 128,-1,25
 966 -10 966 -10 950.5 -22 c 128,-1,26
 935 -34 935 -34 901.5 -46.5 c 128,-1,27
 868 -59 868 -59 837.5 -63 c 128,-1,28
 807 -67 807 -67 751.5 -71.5 c 128,-1,29
 696 -76 696 -76 645 -76.5 c 128,-1,30
 594 -77 594 -77 512 -77 c 128,-1,31
 430 -77 430 -77 379 -76.5 c 128,-1,32
 328 -76 328 -76 272.5 -71.5 c 128,-1,33
 217 -67 217 -67 186.5 -63 c 128,-1,34
 156 -59 156 -59 122.5 -46.5 c 128,-1,35
 89 -34 89 -34 73.5 -22 c 128,-1,36
 58 -10 58 -10 41 15 c 128,-1,37
 24 40 24 40 18.5 63 c 128,-1,38
 13 86 13 86 7 127.5 c 128,-1,39
 1 169 1 169 0.5 207.5 c 128,-1,0
 0 246 0 246 0 307.5 c 128,-1,1
EndSplineSet
Validated: 513
EndChar

StartChar: U+0058
Encoding: 88 88 59
Width: 1024
Flags: W
LayerCount: 2
Back
Fore
SplineSet
922 307 m 0,0,1
 922 554 922 554 949 580 c 0,2,3
 963 593 963 593 979 534 c 0,4,5
 979 532 979 532 979 531 c 0,6,7
 1004 435 1004 435 1004 307 c 128,-1,8
 1004 179 1004 179 979 83 c 0,9,10
 958 1 958 1 942 49 c 0,11,12
 922 107 922 107 922 307 c 0,0,1
EndSplineSet
Validated: 545
EndChar

StartChar: U+0059
Encoding: 89 89 60
Width: 1024
Flags: W
LayerCount: 2
Back
Fore
SplineSet
26 307 m 0,0,1
 26 554 26 554 53 580 c 0,2,3
 67 593 67 593 83 534 c 0,4,5
 83 532 83 532 83 531 c 0,6,7
 108 435 108 435 108 307 c 128,-1,8
 108 179 108 179 83 83 c 0,9,10
 62 1 62 1 46 49 c 0,11,12
 26 107 26 107 26 307 c 0,0,1
EndSplineSet
Validated: 545
EndChar

StartChar: U+005A
Encoding: 90 90 61
Width: 1024
Flags: W
LayerCount: 2
Back
Fore
SplineSet
179 595 m 2,0,-1
 -64 883 l 1,1,-1
 224 640 l 2,2,3
 274 598 274 598 301 575 c 128,-1,4
 328 552 328 552 365 526.5 c 128,-1,5
 402 501 402 501 419.5 489.5 c 128,-1,6
 437 478 437 478 467.5 469.5 c 128,-1,7
 498 461 498 461 512 461 c 128,-1,8
 526 461 526 461 556.5 469.5 c 128,-1,9
 587 478 587 478 604.5 489.5 c 128,-1,10
 622 501 622 501 659 526.5 c 128,-1,11
 696 552 696 552 723 575 c 128,-1,12
 750 598 750 598 800 640 c 2,13,-1
 1088 883 l 1,14,-1
 845 595 l 2,15,16
 792 533 792 533 765.5 501 c 128,-1,17
 739 469 739 469 712 426 c 128,-1,18
 685 383 685 383 676.5 363.5 c 128,-1,19
 668 344 668 344 668 307 c 128,-1,20
 668 270 668 270 676.5 251 c 128,-1,21
 685 232 685 232 712 188.5 c 128,-1,22
 739 145 739 145 765.5 113.5 c 128,-1,23
 792 82 792 82 845 19 c 2,24,-1
 1088 -269 l 1,25,-1
 800 -26 l 2,26,27
 738 27 738 27 706 53.5 c 128,-1,28
 674 80 674 80 630.5 107 c 128,-1,29
 587 134 587 134 568 143 c 128,-1,30
 549 152 549 152 512 152 c 128,-1,31
 475 152 475 152 456 143 c 128,-1,32
 437 134 437 134 393.5 107 c 128,-1,33
 350 80 350 80 318 53.5 c 128,-1,34
 286 27 286 27 224 -26 c 2,35,-1
 -64 -269 l 1,36,-1
 179 19 l 2,37,38
 232 82 232 82 258.5 113.5 c 128,-1,39
 285 145 285 145 312 188.5 c 128,-1,40
 339 232 339 232 347.5 251 c 128,-1,41
 356 270 356 270 356 307 c 128,-1,42
 356 344 356 344 347.5 363.5 c 128,-1,43
 339 383 339 383 312 426 c 128,-1,44
 285 469 285 469 258.5 501 c 128,-1,45
 232 533 232 533 179 595 c 2,0,-1
EndSplineSet
Validated: 513
EndChar

StartChar: U+005B
Encoding: 91 91 62
Width: 1024
Flags: W
LayerCount: 2
Back
Fore
SplineSet
531 602 m 0,0,1
 545 801 545 801 553 807 c 0,2,3
 557 809 557 809 561 797 c 0,4,5
 570 772 570 772 602 595 c 0,6,7
 622 480 622 480 702.5 390 c 128,-1,8
 783 300 783 300 870 294 c 0,9,10
 1017 286 1017 286 1019 275 c 0,11,12
 1019 270 1019 270 997 261 c 0,13,14
 966 250 966 250 864 224 c 0,15,16
 768 199 768 199 700.5 120.5 c 128,-1,17
 633 42 633 42 627 -51 c 0,18,19
 619 -198 619 -198 608 -199 c 0,20,21
 603 -200 603 -200 594 -178 c 0,22,23
 583 -148 583 -148 557 -45 c 0,24,25
 533 47 533 47 433 119 c 128,-1,26
 333 191 333 191 218 198 c 0,27,28
 19 212 19 212 12 221 c 0,29,30
 10 224 10 224 22 228 c 0,31,32
 48 237 48 237 224 269 c 0,33,34
 512 320 512 320 531 602 c 0,0,1
EndSplineSet
Validated: 513
EndChar

StartChar: U+005C
Encoding: 92 92 63
Width: 1024
Flags: W
LayerCount: 2
Back
Fore
SplineSet
192 602 m 2,0,1
 298 686 298 686 392 746 c 128,-1,2
 486 806 486 806 512 806 c 128,-1,3
 538 806 538 806 632 746 c 128,-1,4
 726 686 726 686 832 602 c 0,5,6
 992 474 992 474 992 451 c 0,7,8
 993 429 993 429 864 474 c 0,9,10
 820 489 820 489 787 494 c 128,-1,11
 754 499 754 499 728.5 492.5 c 128,-1,12
 703 486 703 486 686.5 469 c 128,-1,13
 670 452 670 452 659.5 419.5 c 128,-1,14
 649 387 649 387 644.5 343 c 128,-1,15
 640 299 640 299 640 237 c 0,16,17
 640 155 640 155 622.5 82.5 c 128,-1,18
 605 10 605 10 575 -33.5 c 128,-1,19
 545 -77 545 -77 512 -77 c 128,-1,20
 479 -77 479 -77 449 -33.5 c 128,-1,21
 419 10 419 10 401.5 82.5 c 128,-1,22
 384 155 384 155 384 237 c 0,23,24
 384 312 384 312 377 361 c 128,-1,25
 370 410 370 410 355 442 c 128,-1,26
 340 474 340 474 313.5 486 c 128,-1,27
 287 498 287 498 250 495 c 128,-1,28
 213 492 213 492 160 474 c 0,29,30
 33 430 33 430 32 450 c 0,31,32
 30 469 30 469 147 565 c 2,33,-1
 192 602 l 2,0,1
EndSplineSet
Validated: 545
EndChar

StartChar: U+005D
Encoding: 93 93 64
Width: 1024
Flags: W
LayerCount: 2
Back
Fore
SplineSet
384 506 m 0,0,1
 384 587 384 587 401.5 660 c 128,-1,2
 419 733 419 733 449 776 c 128,-1,3
 479 819 479 819 512 819 c 0,4,5
 532 819 532 819 551.5 802.5 c 128,-1,6
 571 786 571 786 586.5 756.5 c 128,-1,7
 602 727 602 727 614.5 688 c 128,-1,8
 627 649 627 649 633.5 602 c 128,-1,9
 640 555 640 555 640 506 c 0,10,11
 640 431 640 431 647 381.5 c 128,-1,12
 654 332 654 332 669 299.5 c 128,-1,13
 684 267 684 267 710.5 254.5 c 128,-1,14
 737 242 737 242 774 244 c 128,-1,15
 811 246 811 246 864 262 c 0,16,17
 1088 333 1088 333 800 122 c 0,18,19
 744 81 744 81 709 56.5 c 128,-1,20
 674 32 674 32 634.5 11.5 c 128,-1,21
 595 -9 595 -9 570.5 -17.5 c 128,-1,22
 546 -26 546 -26 512 -26 c 128,-1,23
 478 -26 478 -26 453.5 -17.5 c 128,-1,24
 429 -9 429 -9 389.5 11.5 c 128,-1,25
 350 32 350 32 315 56.5 c 128,-1,26
 280 81 280 81 224 122 c 0,27,28
 -64 333 -64 333 160 262 c 0,29,30
 213 246 213 246 250 244 c 128,-1,31
 287 242 287 242 313.5 254.5 c 128,-1,32
 340 267 340 267 355 299.5 c 128,-1,33
 370 332 370 332 377 381.5 c 128,-1,34
 384 431 384 431 384 506 c 0,0,1
EndSplineSet
Validated: 545
EndChar

StartChar: U+005E
Encoding: 94 94 65
Width: 1024
Flags: W
LayerCount: 2
Back
Fore
SplineSet
192 602 m 2,0,1
 298 686 298 686 392 746 c 128,-1,2
 486 806 486 806 512 806 c 128,-1,3
 538 806 538 806 632 746 c 128,-1,4
 726 686 726 686 832 602 c 0,5,6
 992 474 992 474 992 451 c 0,7,8
 993 429 993 429 864 474 c 0,9,10
 758 510 758 510 699 483 c 128,-1,11
 640 456 640 456 640 371.5 c 128,-1,12
 640 287 640 287 699 258 c 128,-1,13
 758 229 758 229 864 262 c 0,14,15
 1088 333 1088 333 800 122 c 0,16,17
 744 81 744 81 709 56.5 c 128,-1,18
 674 32 674 32 634.5 11.5 c 128,-1,19
 595 -9 595 -9 570.5 -17.5 c 128,-1,20
 546 -26 546 -26 512 -26 c 128,-1,21
 478 -26 478 -26 453.5 -17.5 c 128,-1,22
 429 -9 429 -9 389.5 11.5 c 128,-1,23
 350 32 350 32 315 56.5 c 128,-1,24
 280 81 280 81 224 122 c 0,25,26
 -64 333 -64 333 160 262 c 0,27,28
 266 229 266 229 325 258 c 128,-1,29
 384 287 384 287 384 371.5 c 128,-1,30
 384 456 384 456 325 483 c 128,-1,31
 266 510 266 510 160 474 c 0,32,33
 33 430 33 430 32 450 c 0,34,35
 30 469 30 469 147 565 c 2,36,-1
 192 602 l 2,0,1
EndSplineSet
Validated: 545
EndChar

StartChar: U+005F
Encoding: 95 95 66
Width: 1024
Flags: W
LayerCount: 2
Back
Fore
SplineSet
0 307 m 1,0,-1
 0 819 l 1,1,-1
 512 819 l 1,2,-1
 1024 819 l 1,3,-1
 1024 307 l 1,4,-1
 1024 -205 l 1,5,-1
 512 -205 l 1,6,-1
 0 -205 l 1,7,-1
 0 307 l 1,0,-1
896 307 m 128,-1,9
 896 377 896 377 894 423.5 c 128,-1,10
 892 470 892 470 884 513 c 128,-1,11
 876 556 876 556 866 581 c 128,-1,12
 856 606 856 606 833.5 628.5 c 128,-1,13
 811 651 811 651 785.5 661.5 c 128,-1,14
 760 672 760 672 717 679.5 c 128,-1,15
 674 687 674 687 628 689 c 128,-1,16
 582 691 582 691 512 691 c 128,-1,17
 442 691 442 691 396 689 c 128,-1,18
 350 687 350 687 307 679.5 c 128,-1,19
 264 672 264 672 238.5 661.5 c 128,-1,20
 213 651 213 651 190.5 628.5 c 128,-1,21
 168 606 168 606 158 581 c 128,-1,22
 148 556 148 556 140 513 c 128,-1,23
 132 470 132 470 130 423.5 c 128,-1,24
 128 377 128 377 128 307 c 128,-1,25
 128 237 128 237 130 191 c 128,-1,26
 132 145 132 145 140 102 c 128,-1,27
 148 59 148 59 158 33.5 c 128,-1,28
 168 8 168 8 190.5 -14 c 128,-1,29
 213 -36 213 -36 238.5 -46.5 c 128,-1,30
 264 -57 264 -57 307 -65 c 128,-1,31
 350 -73 350 -73 396 -75 c 128,-1,32
 442 -77 442 -77 512 -77 c 128,-1,33
 582 -77 582 -77 628 -75 c 128,-1,34
 674 -73 674 -73 717 -65 c 128,-1,35
 760 -57 760 -57 785.5 -46.5 c 128,-1,36
 811 -36 811 -36 833.5 -14 c 128,-1,37
 856 8 856 8 866 33.5 c 128,-1,38
 876 59 876 59 884 102 c 128,-1,39
 892 145 892 145 894 191 c 128,-1,8
 896 237 896 237 896 307 c 128,-1,9
EndSplineSet
Validated: 513
EndChar

StartChar: U+0060
Encoding: 96 96 67
Width: 1024
Flags: W
LayerCount: 2
Back
Fore
SplineSet
179 678 m 0,0,1
 220 743 220 743 314.5 778.5 c 128,-1,2
 409 814 409 814 510 814 c 128,-1,3
 611 814 611 814 705.5 778.5 c 128,-1,4
 800 743 800 743 840 678 c 0,5,6
 860 647 860 647 860.5 603.5 c 128,-1,7
 861 560 861 560 844.5 513.5 c 128,-1,8
 828 467 828 467 800 419 c 128,-1,9
 772 371 772 371 733.5 328.5 c 128,-1,10
 695 286 695 286 652.5 252 c 128,-1,11
 610 218 610 218 563 198.5 c 128,-1,12
 516 179 516 179 474 179 c 0,13,14
 333 179 333 179 486 333 c 0,15,16
 546 392 546 392 582 444.5 c 128,-1,17
 618 497 618 497 629 536 c 128,-1,18
 640 575 640 575 628 602.5 c 128,-1,19
 616 630 616 630 582 642 c 128,-1,20
 548 654 548 654 491 649 c 128,-1,21
 434 644 434 644 358 621 c 0,22,23
 90 538 90 538 179 678 c 0,0,1
EndSplineSet
Validated: 545
EndChar

StartChar: U+0061
Encoding: 97 97 68
Width: 1024
Flags: W
LayerCount: 2
Back
Fore
SplineSet
12 333 m 0,0,1
 4 633 4 633 80 757 c 0,2,3
 138 852 138 852 224 798 c 0,4,5
 276 765 276 765 330 678 c 0,6,7
 410 550 410 550 621 717 c 0,8,9
 761 827 761 827 770 823 c 0,10,11
 779 818 779 818 666 676 c 0,12,13
 660 668 660 668 653 659 c 0,14,15
 553 534 553 534 473.5 517 c 128,-1,16
 394 500 394 500 294 582 c 0,17,18
 166 688 166 688 136 651 c 0,19,20
 108 617 108 617 180 489 c 0,21,22
 240 382 240 382 347 256 c 0,23,24
 506 69 506 69 497 62 c 0,25,26
 489 56 489 56 365 154 c 0,27,28
 319 190 319 190 287 211 c 128,-1,29
 255 232 255 232 227.5 241 c 128,-1,30
 200 250 200 250 181.5 246 c 128,-1,31
 163 242 163 242 146 222 c 128,-1,32
 129 202 129 202 116.5 171 c 128,-1,33
 104 140 104 140 90 90 c 0,34,35
 67 7 67 7 45 56 c 0,36,37
 18 117 18 117 12 333 c 0,0,1
EndSplineSet
Validated: 545
EndChar

StartChar: U+0062
Encoding: 98 98 69
Width: 1024
Flags: W
LayerCount: 2
Back
Fore
SplineSet
128 371.5 m 128,-1,1
 128 717 128 717 222.5 790 c 128,-1,2
 317 863 317 863 493 653 c 0,3,4
 614 509 614 509 614 371.5 c 128,-1,5
 614 234 614 234 493 90 c 0,6,7
 317 -120 317 -120 222.5 -47 c 128,-1,0
 128 26 128 26 128 371.5 c 128,-1,1
448 563 m 0,8,9
 425 601 425 601 400.5 630 c 128,-1,10
 376 659 376 659 353.5 675 c 128,-1,11
 331 691 331 691 314 691 c 0,12,13
 288 691 288 691 272 656 c 128,-1,14
 256 621 256 621 256 563 c 0,15,16
 256 508 256 508 294.5 471.5 c 128,-1,17
 333 435 333 435 390.5 435 c 128,-1,18
 448 435 448 435 464.5 471.5 c 128,-1,19
 481 508 481 508 448 563 c 0,8,9
512 250 m 128,-1,21
 512 276 512 276 477 291.5 c 128,-1,22
 442 307 442 307 384 307 c 0,23,24
 329 307 329 307 292.5 268.5 c 128,-1,25
 256 230 256 230 256 172.5 c 128,-1,26
 256 115 256 115 292.5 98.5 c 128,-1,27
 329 82 329 82 384 115 c 0,28,29
 442 150 442 150 477 187 c 128,-1,20
 512 224 512 224 512 250 c 128,-1,21
EndSplineSet
Validated: 545
EndChar

StartChar: U+0063
Encoding: 99 99 70
Width: 1024
Flags: W
LayerCount: 2
Back
Fore
SplineSet
384 486 m 0,0,1
 384 555 384 555 384.5 598 c 128,-1,2
 385 641 385 641 389 683 c 128,-1,3
 393 725 393 725 396.5 747 c 128,-1,4
 400 769 400 769 411.5 784 c 128,-1,5
 423 799 423 799 433.5 800 c 128,-1,6
 444 801 444 801 465.5 790 c 128,-1,7
 487 779 487 779 508 759.5 c 128,-1,8
 529 740 529 740 564.5 703 c 128,-1,9
 600 666 600 666 634 626.5 c 128,-1,10
 668 587 668 587 721 525 c 0,11,12
 878 340 878 340 852 339 c 0,13,14
 836 338 836 338 742 410 c 0,15,16
 705 438 705 438 678.5 456 c 128,-1,17
 652 474 652 474 627.5 484.5 c 128,-1,18
 603 495 603 495 587 496 c 128,-1,19
 571 497 571 497 556 487 c 128,-1,20
 541 477 541 477 532 459 c 128,-1,21
 523 441 523 441 514 408 c 128,-1,22
 505 375 505 375 499 335 c 128,-1,23
 493 295 493 295 486 237 c 2,24,-1
 448 -102 l 1,25,-1
 192 198 l 2,26,27
 23 397 23 397 49 398 c 0,28,29
 66 399 66 399 160 326 c 0,30,31
 200 296 200 296 227 277 c 128,-1,32
 254 258 254 258 278.5 246 c 128,-1,33
 303 234 303 234 318 232 c 128,-1,34
 333 230 333 230 346 239 c 128,-1,35
 359 248 359 248 365.5 265.5 c 128,-1,36
 372 283 372 283 376.5 316 c 128,-1,37
 381 349 381 349 382.5 388.5 c 128,-1,38
 384 428 384 428 384 486 c 0,0,1
EndSplineSet
Validated: 545
EndChar

StartChar: U+0064
Encoding: 100 100 71
Width: 1024
Flags: W
LayerCount: 2
Back
Fore
SplineSet
0 371 m 0,0,1
 0 661 0 661 16 728 c 0,2,3
 30 789 30 789 68 777 c 0,4,5
 104 766 104 766 204 666 c 1,6,-1
 218 653 l 2,7,8
 261 610 261 610 287 585 c 128,-1,9
 313 560 313 560 343.5 538 c 128,-1,10
 374 516 374 516 392 507.5 c 128,-1,11
 410 499 410 499 437 498.5 c 128,-1,12
 464 498 464 498 482.5 506 c 128,-1,13
 501 514 501 514 533 535 c 128,-1,14
 565 556 565 556 592.5 580 c 128,-1,15
 620 604 620 604 666 646 c 0,16,17
 778 750 778 750 817 765 c 0,18,19
 861 781 861 781 878 725 c 0,20,21
 896 664 896 664 896 399 c 0,22,23
 896 386 896 386 896 371 c 0,24,25
 896 91 896 91 880 25 c 0,26,27
 865 -36 865 -36 824 -25 c 0,28,29
 787 -14 787 -14 679 83 c 1,30,-1
 666 96 l 2,31,32
 620 138 620 138 592.5 162 c 128,-1,33
 565 186 565 186 533 207.5 c 128,-1,34
 501 229 501 229 482.5 236.5 c 128,-1,35
 464 244 464 244 437 244 c 128,-1,36
 410 244 410 244 392 235.5 c 128,-1,37
 374 227 374 227 343.5 205 c 128,-1,38
 313 183 313 183 287 158 c 128,-1,39
 261 133 261 133 218 90 c 0,40,41
 111 -17 111 -17 75 -32 c 0,42,43
 33 -50 33 -50 18 6 c 0,44,45
 0 69 0 69 0 346 c 0,46,47
 0 358 0 358 0 371 c 0,0,1
314 435 m 0,48,49
 230 573 230 573 179 552 c 128,-1,50
 128 531 128 531 128 358 c 0,51,52
 128 282 128 282 166.5 247 c 128,-1,53
 205 212 205 212 256 243 c 0,54,55
 314 278 314 278 330 330.5 c 128,-1,56
 346 383 346 383 314 435 c 0,48,49
768 358 m 0,57,58
 768 531 768 531 717 552 c 128,-1,59
 666 573 666 573 582 435 c 0,60,61
 550 383 550 383 566 330.5 c 128,-1,62
 582 278 582 278 640 243 c 0,63,64
 691 212 691 212 729.5 247 c 128,-1,65
 768 282 768 282 768 358 c 0,57,58
EndSplineSet
Validated: 545
EndChar

StartChar: U+0065
Encoding: 101 101 72
Width: 1024
Flags: W
LayerCount: 2
Back
Fore
SplineSet
19 365 m 0,0,1
 8 660 8 660 22 728 c 0,2,3
 35 787 35 787 74 773 c 0,4,5
 112 759 112 759 218 653 c 0,6,7
 261 610 261 610 287 585 c 128,-1,8
 313 560 313 560 343.5 538 c 128,-1,9
 374 516 374 516 392 507.5 c 128,-1,10
 410 499 410 499 437 498.5 c 128,-1,11
 464 498 464 498 482.5 506 c 128,-1,12
 501 514 501 514 533 535 c 128,-1,13
 565 556 565 556 592.5 580 c 128,-1,14
 620 604 620 604 666 646 c 0,15,16
 778 750 778 750 816 764 c 0,17,18
 860 781 860 781 874 724 c 0,19,20
 891 661 891 661 884 389 c 2,21,-1
 883 358 l 2,22,23
 875 24 875 24 863 -8 c 0,24,25
 856 -28 856 -28 842 12 c 0,26,27
 827 57 827 57 787 243 c 0,28,29
 728 515 728 515 663 516 c 0,30,31
 632 517 632 517 595 461 c 0,32,33
 535 368 535 368 472.5 362.5 c 128,-1,34
 410 357 410 357 314 435 c 0,35,36
 261 478 261 478 226.5 488 c 128,-1,37
 192 498 192 498 165.5 472.5 c 128,-1,38
 139 447 139 447 122 386.5 c 128,-1,39
 105 326 105 326 90 218 c 0,40,41
 63 34 63 34 50 33 c 0,42,43
 38 31 38 31 29 157 c 0,44,45
 24 231 24 231 19 365 c 0,0,1
EndSplineSet
Validated: 545
EndChar

StartChar: U+0066
Encoding: 102 102 73
Width: 1024
Flags: W
LayerCount: 2
Back
Fore
SplineSet
0 384 m 0,0,1
 0 736 0 736 51 755 c 0,2,3
 77 765 77 765 122 698 c 0,4,5
 172 621 172 621 185 527 c 128,-1,6
 198 433 198 433 166 378 c 0,7,8
 133 320 133 320 144 312.5 c 128,-1,9
 155 305 155 305 204.5 352 c 128,-1,10
 254 399 254 399 287 468.5 c 128,-1,11
 320 538 320 538 320 595 c 0,12,13
 320 650 320 650 390.5 701 c 128,-1,14
 461 752 461 752 557 768 c 0,15,16
 672 787 672 787 680 749 c 0,17,18
 689 703 689 703 548 534 c 0,19,20
 500 477 500 477 429 397 c 0,21,22
 328 283 328 283 240 182.5 c 128,-1,23
 152 82 152 82 96.5 16 c 128,-1,24
 41 -50 41 -50 32 -64 c 0,25,26
 22 -80 22 -80 14 0 c 0,27,28
 0 131 0 131 0 384 c 0,0,1
EndSplineSet
Validated: 545
EndChar

StartChar: U+0067
Encoding: 103 103 74
Width: 1024
Flags: W
LayerCount: 2
Back
Fore
SplineSet
192 602 m 0,0,1
 56 755 56 755 60 759 c 128,-1,2
 64 763 64 763 218 627 c 0,3,4
 256 594 256 594 284 572 c 128,-1,5
 312 550 312 550 341 533.5 c 128,-1,6
 370 517 370 517 392.5 510.5 c 128,-1,7
 415 504 415 504 443 505.5 c 128,-1,8
 471 507 471 507 495 516 c 128,-1,9
 519 525 519 525 552.5 544.5 c 128,-1,10
 586 564 586 564 619 589.5 c 128,-1,11
 652 615 652 615 698 653 c 0,12,13
 891 813 891 813 895 808.5 c 128,-1,14
 899 804 899 804 736 627 c 0,15,16
 693 581 693 581 667 551 c 128,-1,17
 641 521 641 521 619.5 487.5 c 128,-1,18
 598 454 598 454 589.5 432.5 c 128,-1,19
 581 411 581 411 581 381 c 128,-1,20
 581 351 581 351 589.5 329 c 128,-1,21
 598 307 598 307 619.5 271.5 c 128,-1,22
 641 236 641 236 667 204 c 128,-1,23
 693 172 693 172 736 122 c 0,24,25
 900 -70 900 -70 895 -75.5 c 128,-1,26
 890 -81 890 -81 698 83 c 0,27,28
 647 126 647 126 615 152 c 128,-1,29
 583 178 583 178 547.5 199.5 c 128,-1,30
 512 221 512 221 490 229.5 c 128,-1,31
 468 238 468 238 438 238 c 128,-1,32
 408 238 408 238 386.5 229.5 c 128,-1,33
 365 221 365 221 331.5 199.5 c 128,-1,34
 298 178 298 178 268 152 c 128,-1,35
 238 126 238 126 192 83 c 0,36,37
 19 -76 19 -76 11 -76 c 256,38,39
 3 -76 3 -76 150 102 c 1,40,-1
 151 103 l 1,41,-1
 152 104 l 1,42,-1
 152 105 l 1,43,-1
 153 106 l 1,44,-1
 154 107 l 1,45,-1
 155 108 l 1,46,-1
 156 109 l 1,47,-1
 157 110 l 1,48,-1
 157 111 l 1,49,-1
 158 112 l 1,50,-1
 159 113 l 1,51,-1
 160 114 l 1,52,-1
 161 115 l 1,53,-1
 161 116 l 1,54,-1
 162 117 l 1,55,-1
 163 118 l 1,56,-1
 164 119 l 1,57,-1
 165 120 l 1,58,-1
 166 122 l 1,59,60
 200 162 200 162 223 192.5 c 128,-1,61
 246 223 246 223 266 252.5 c 128,-1,62
 286 282 286 282 295.5 306 c 128,-1,63
 305 330 305 330 311 353.5 c 128,-1,64
 317 377 317 377 313.5 399 c 128,-1,65
 310 421 310 421 303 443 c 128,-1,66
 296 465 296 465 279 490.5 c 128,-1,67
 262 516 262 516 242 542 c 128,-1,68
 222 568 222 568 192 602 c 0,0,1
EndSplineSet
Validated: 545
EndChar

StartChar: U+0068
Encoding: 104 104 75
Width: 1024
Flags: W
LayerCount: 2
Back
Fore
SplineSet
0 346 m 0,0,1
 0 538 0 538 30.5 678.5 c 128,-1,2
 61 819 61 819 102 819 c 0,3,4
 130 819 130 819 170 799.5 c 128,-1,5
 210 780 210 780 252.5 747 c 128,-1,6
 295 714 295 714 341 671 c 128,-1,7
 387 628 387 628 427.5 581 c 128,-1,8
 468 534 468 534 503 487.5 c 128,-1,9
 538 441 538 441 558.5 400 c 128,-1,10
 579 359 579 359 585.5 328 c 128,-1,11
 592 297 592 297 576 282 c 0,12,13
 541 247 541 247 550 206.5 c 128,-1,14
 559 166 559 166 608 134 c 0,15,16
 637 116 637 116 665.5 145 c 128,-1,17
 694 174 694 174 715.5 241.5 c 128,-1,18
 737 309 737 309 744 397 c 0,19,20
 753 506 753 506 765.5 589.5 c 128,-1,21
 778 673 778 673 792.5 718 c 128,-1,22
 807 763 807 763 821.5 782.5 c 128,-1,23
 836 802 836 802 849.5 782.5 c 128,-1,24
 863 763 863 763 873.5 718 c 128,-1,25
 884 673 884 673 890 589.5 c 128,-1,26
 896 506 896 506 896 397 c 0,27,28
 896 271 896 271 882 161.5 c 128,-1,29
 868 52 868 52 844.5 -12.5 c 128,-1,30
 821 -77 821 -77 794 -77 c 0,31,32
 743 -77 743 -77 639 5 c 128,-1,33
 535 87 535 87 439 191 c 128,-1,34
 343 295 343 295 279.5 394.5 c 128,-1,35
 216 494 216 494 237 525 c 0,36,37
 257 554 257 554 255 583.5 c 128,-1,38
 253 613 253 613 230 634 c 0,39,40
 215 647 215 647 198 601 c 0,41,42
 166 520 166 520 152 346 c 0,43,44
 143 237 143 237 130.5 153 c 128,-1,45
 118 69 118 69 103.5 24.5 c 128,-1,46
 89 -20 89 -20 74.5 -40 c 128,-1,47
 60 -60 60 -60 46.5 -40 c 128,-1,48
 33 -20 33 -20 22.5 24.5 c 128,-1,49
 12 69 12 69 6 153 c 128,-1,50
 0 237 0 237 0 346 c 0,0,1
EndSplineSet
Validated: 545
EndChar

StartChar: U+0069
Encoding: 105 105 76
Width: 1024
Flags: W
LayerCount: 2
Back
Fore
SplineSet
416 371 m 0,0,1
 412 667 412 667 440 703 c 0,2,3
 449 715 449 715 460 683 c 0,4,5
 464 673 464 673 467 659 c 0,6,7
 490 570 490 570 492 416 c 128,-1,8
 494 262 494 262 474 147 c 0,9,10
 459 65 459 65 446 73 c 0,11,12
 420 91 420 91 416 371 c 0,0,1
EndSplineSet
Validated: 545
EndChar

StartChar: U+006A
Encoding: 106 106 77
Width: 1024
Flags: W
LayerCount: 2
Back
Fore
SplineSet
211 582.5 m 128,-1,1
 251 627 251 627 277 654.5 c 128,-1,2
 303 682 303 682 332.5 705 c 128,-1,3
 362 728 362 728 381 738 c 128,-1,4
 400 748 400 748 426.5 749.5 c 128,-1,5
 453 751 453 751 473 743.5 c 128,-1,6
 493 736 493 736 524.5 716 c 128,-1,7
 556 696 556 696 585.5 672 c 128,-1,8
 615 648 615 648 659.5 608 c 128,-1,9
 704 568 704 568 731.5 542 c 128,-1,10
 759 516 759 516 782 487 c 128,-1,11
 805 458 805 458 814.5 438.5 c 128,-1,12
 824 419 824 419 825.5 393 c 128,-1,13
 827 367 827 367 819.5 346.5 c 128,-1,14
 812 326 812 326 792.5 294.5 c 128,-1,15
 773 263 773 263 749 234 c 128,-1,16
 725 205 725 205 685 160 c 128,-1,17
 645 115 645 115 619 87.5 c 128,-1,18
 593 60 593 60 563.5 37 c 128,-1,19
 534 14 534 14 515 4.5 c 128,-1,20
 496 -5 496 -5 469.5 -6.5 c 128,-1,21
 443 -8 443 -8 423 -0.5 c 128,-1,22
 403 7 403 7 371.5 26.5 c 128,-1,23
 340 46 340 46 310.5 70.5 c 128,-1,24
 281 95 281 95 236.5 134.5 c 128,-1,25
 192 174 192 174 164.5 200.5 c 128,-1,26
 137 227 137 227 114 256 c 128,-1,27
 91 285 91 285 81.5 304 c 128,-1,28
 72 323 72 323 70.5 349.5 c 128,-1,29
 69 376 69 376 76.5 396 c 128,-1,30
 84 416 84 416 103.5 447.5 c 128,-1,31
 123 479 123 479 147 508.5 c 128,-1,0
 171 538 171 538 211 582.5 c 128,-1,1
384 358 m 0,32,33
 384 531 384 531 333 552 c 128,-1,34
 282 573 282 573 198 435 c 0,35,36
 166 383 166 383 182 330.5 c 128,-1,37
 198 278 198 278 256 243 c 0,38,39
 307 212 307 212 345.5 247 c 128,-1,40
 384 282 384 282 384 358 c 0,32,33
698 435 m 0,41,42
 614 573 614 573 563 552 c 128,-1,43
 512 531 512 531 512 358 c 0,44,45
 512 282 512 282 550.5 247 c 128,-1,46
 589 212 589 212 640 243 c 0,47,48
 698 278 698 278 714 330.5 c 128,-1,49
 730 383 730 383 698 435 c 0,41,42
EndSplineSet
Validated: 545
EndChar

StartChar: U+006B
Encoding: 107 107 78
Width: 1024
Flags: W
LayerCount: 2
Back
Fore
SplineSet
390 672 m 0,0,1
 393 770 393 770 416 769 c 0,2,3
 445 769 445 769 512 608 c 0,4,5
 560 493 560 493 632.5 388.5 c 128,-1,6
 705 284 705 284 762 250 c 0,7,8
 820 213 820 213 856 146.5 c 128,-1,9
 892 80 892 80 890 13 c 0,10,11
 887 -49 887 -49 848 -27 c 0,12,13
 805 -2 805 -2 742 109 c 0,14,15
 712 162 712 162 696.5 189.5 c 128,-1,16
 681 217 681 217 660.5 244.5 c 128,-1,17
 640 272 640 272 631 281 c 128,-1,18
 622 290 622 290 606.5 290 c 128,-1,19
 591 290 591 290 583.5 281 c 128,-1,20
 576 272 576 272 560 244.5 c 128,-1,21
 544 217 544 217 532.5 189.5 c 128,-1,22
 521 162 521 162 499 109 c 0,23,24
 431 -56 431 -56 416 -73 c 0,25,26
 403 -87 403 -87 396 -53 c 0,27,28
 391 -24 391 -24 384 115 c 0,29,30
 376 268 376 268 365 293 c 0,31,32
 353 323 353 323 316 287 c 0,33,34
 288 260 288 260 186 122 c 0,35,36
 87 -10 87 -10 33 -24 c 0,37,38
 2 -28 2 -28 0 13 c 0,39,40
 0 69 0 69 57.5 157.5 c 128,-1,41
 115 246 115 246 192 307 c 0,42,43
 271 370 271 370 329.5 478 c 128,-1,44
 388 586 388 586 390 672 c 0,0,1
EndSplineSet
Validated: 545
EndChar

StartChar: U+006C
Encoding: 108 108 79
Width: 1024
Flags: W
LayerCount: 2
Back
Fore
SplineSet
403 339 m 0,0,1
 395 541 395 541 402.5 680 c 128,-1,2
 410 819 410 819 429 819 c 0,3,4
 447 819 447 819 533.5 732.5 c 128,-1,5
 620 646 620 646 717 531 c 0,6,7
 876 342 876 342 848 342 c 0,8,9
 831 342 831 342 742 410 c 0,10,11
 703 439 703 439 676.5 457.5 c 128,-1,12
 650 476 650 476 625 487 c 128,-1,13
 600 498 600 498 584 499 c 128,-1,14
 568 500 568 500 552.5 489 c 128,-1,15
 537 478 537 478 527.5 458.5 c 128,-1,16
 518 439 518 439 508 403 c 128,-1,17
 498 367 498 367 490.5 324.5 c 128,-1,18
 483 282 483 282 474 218 c 0,19,20
 445 15 445 15 432 16 c 0,21,22
 416 16 416 16 403 339 c 0,0,1
EndSplineSet
Validated: 545
EndChar

StartChar: U+006D
Encoding: 109 109 80
Width: 1024
Flags: W
LayerCount: 2
Back
Fore
SplineSet
0 346 m 2,0,1
 0 657 0 657 80 771 c 0,2,3
 144 861 144 861 233 788 c 0,4,5
 277 752 277 752 323 678 c 0,6,7
 370 602 370 602 422 602 c 128,-1,8
 474 602 474 602 550 678 c 0,9,10
 735 863 735 863 815.5 788.5 c 128,-1,11
 896 714 896 714 896 358 c 2,12,-1
 896 -102 l 1,13,-1
 659 186 l 1,14,-1
 422 474 l 1,15,-1
 211 173 l 1,16,-1
 0 -128 l 1,17,-1
 0 346 l 2,0,1
314 563 m 0,18,19
 230 701 230 701 179 680 c 128,-1,20
 128 659 128 659 128 486 c 0,21,22
 128 410 128 410 166.5 375 c 128,-1,23
 205 340 205 340 256 371 c 0,24,25
 314 406 314 406 330 458.5 c 128,-1,26
 346 511 346 511 314 563 c 0,18,19
768 486 m 0,27,28
 768 659 768 659 717 680 c 128,-1,29
 666 701 666 701 582 563 c 0,30,31
 550 511 550 511 566 458.5 c 128,-1,32
 582 406 582 406 640 371 c 0,33,34
 666 355 666 355 689 357.5 c 128,-1,35
 712 360 712 360 729.5 375 c 128,-1,36
 747 390 747 390 757.5 419.5 c 128,-1,37
 768 449 768 449 768 486 c 0,27,28
EndSplineSet
Validated: 545
EndChar

StartChar: U+006E
Encoding: 110 110 81
Width: 1024
Flags: W
LayerCount: 2
Back
Fore
SplineSet
147 627 m 0,0,1
 0 806 0 806 -3 821 c 0,2,3
 -5 830 -5 830 22 813 c 0,4,5
 49 794 49 794 147 717 c 0,6,7
 234 649 234 649 309.5 635.5 c 128,-1,8
 385 622 385 622 403 672 c 0,9,10
 423 725 423 725 510 658 c 0,11,12
 595 594 595 594 698 454 c 0,13,14
 865 227 865 227 852 211 c 0,15,16
 841 199 841 199 730 288 c 0,17,18
 691 319 691 319 664.5 338.5 c 128,-1,19
 638 358 638 358 613.5 371 c 128,-1,20
 589 384 589 384 574 387 c 128,-1,21
 559 390 559 390 546 382.5 c 128,-1,22
 533 375 533 375 526 360 c 128,-1,23
 519 345 519 345 513 315 c 128,-1,24
 507 285 507 285 504 249.5 c 128,-1,25
 501 214 501 214 499 160 c 0,26,27
 491 -38 491 -38 476 -41 c 0,28,29
 467 -42 467 -42 453 4 c 2,30,-1
 422 115 l 2,31,32
 396 221 396 221 315 371.5 c 128,-1,33
 234 522 234 522 147 627 c 0,0,1
EndSplineSet
Validated: 545
EndChar

StartChar: U+006F
Encoding: 111 111 82
Width: 1024
Flags: W
LayerCount: 2
Back
Fore
SplineSet
0 346 m 0,0,1
 0 641 0 641 81 759 c 0,2,3
 144 851 144 851 232 790 c 0,4,5
 281 756 281 756 329 678 c 0,6,7
 372 610 372 610 432.5 614.5 c 128,-1,8
 493 619 493 619 589 698 c 0,9,10
 633 734 633 734 662.5 753 c 128,-1,11
 692 772 692 772 713.5 777 c 128,-1,12
 735 782 735 782 746.5 768.5 c 128,-1,13
 758 755 758 755 763 727.5 c 128,-1,14
 768 700 768 700 768 653 c 0,15,16
 768 555 768 555 660 405 c 0,17,18
 572 282 572 282 484 223 c 0,19,20
 395 163 395 163 376 221 c 0,21,22
 375 226 375 226 374 230 c 0,23,24
 358 307 358 307 342 422 c 0,25,26
 320 577 320 577 271 597 c 0,27,28
 232 613 232 613 199 536 c 0,29,30
 167 462 167 462 156 333 c 0,31,32
 147 225 147 225 134 142 c 128,-1,33
 121 59 121 59 106.5 15.5 c 128,-1,34
 92 -28 92 -28 76.5 -46.5 c 128,-1,35
 61 -65 61 -65 47.5 -44 c 128,-1,36
 34 -23 34 -23 23.5 22.5 c 128,-1,37
 13 68 13 68 6.5 152.5 c 128,-1,38
 0 237 0 237 0 346 c 0,0,1
EndSplineSet
Validated: 545
EndChar

StartChar: U+0070
Encoding: 112 112 83
Width: 1024
Flags: W
LayerCount: 2
Back
Fore
SplineSet
19 378 m 0,0,1
 32 709 32 709 49 710 c 0,2,3
 63 710 63 710 90 525 c 0,4,5
 104 422 104 422 122 361.5 c 128,-1,6
 140 301 140 301 166 274.5 c 128,-1,7
 192 248 192 248 226 255 c 128,-1,8
 260 262 260 262 307 301 c 0,9,10
 371 352 371 352 429.5 354 c 128,-1,11
 488 356 488 356 555.5 307 c 128,-1,12
 623 258 623 258 717 147 c 0,13,14
 887 -55 887 -55 892 -70 c 0,15,16
 895 -77 895 -77 881 -68 c 0,17,18
 856 -52 856 -52 698 83 c 0,19,20
 647 126 647 126 615 152 c 128,-1,21
 583 178 583 178 548.5 199.5 c 128,-1,22
 514 221 514 221 492 230 c 128,-1,23
 470 239 470 239 442 239.5 c 128,-1,24
 414 240 414 240 394 231.5 c 128,-1,25
 374 223 374 223 343.5 202 c 128,-1,26
 313 181 313 181 286 156 c 128,-1,27
 259 131 259 131 218 90 c 0,28,29
 111 -17 111 -17 75 -31 c 0,30,31
 35 -45 35 -45 22 14 c 0,32,33
 8 82 8 82 19 378 c 0,0,1
EndSplineSet
Validated: 545
EndChar

StartChar: U+0071
Encoding: 113 113 84
Width: 1024
Flags: W
LayerCount: 2
Back
Fore
SplineSet
154 371 m 0,0,1
 154 666 154 666 183 709 c 0,2,3
 194 726 194 726 208 684 c 0,4,5
 210 678 210 678 211 672 c 0,6,7
 236 583 236 583 324.5 503.5 c 128,-1,8
 413 424 413 424 518.5 397 c 128,-1,9
 624 370 624 370 692.5 283 c 128,-1,10
 761 196 761 196 755 96 c 0,11,12
 753 57 753 57 751.5 31.5 c 128,-1,13
 750 6 750 6 748 -17 c 128,-1,14
 746 -40 746 -40 743.5 -49 c 128,-1,15
 741 -58 741 -58 738 -65.5 c 128,-1,16
 735 -73 735 -73 731 -66.5 c 128,-1,17
 727 -60 727 -60 723 -51.5 c 128,-1,18
 719 -43 719 -43 712 -20 c 128,-1,19
 705 3 705 3 698.5 27 c 128,-1,20
 692 51 692 51 681 90 c 0,21,22
 663 161 663 161 625.5 212 c 128,-1,23
 588 263 588 263 543 286.5 c 128,-1,24
 498 310 498 310 448 310 c 128,-1,25
 398 310 398 310 353 286.5 c 128,-1,26
 308 263 308 263 270.5 212 c 128,-1,27
 233 161 233 161 215 90 c 0,28,29
 192 5 192 5 175 63 c 0,30,31
 154 135 154 135 154 371 c 0,0,1
EndSplineSet
Validated: 545
EndChar

StartChar: U+0072
Encoding: 114 114 85
Width: 1024
Flags: W
LayerCount: 2
Back
Fore
SplineSet
144 346 m 0,0,1
 136 720 136 720 227.5 794 c 128,-1,2
 319 868 319 868 506 640 c 0,3,4
 585 544 585 544 586 481.5 c 128,-1,5
 587 419 587 419 512 371 c 0,6,7
 435 322 435 322 441 254 c 128,-1,8
 447 186 447 186 538 70 c 0,9,10
 651 -74 651 -74 644 -81 c 128,-1,11
 637 -88 637 -88 493 26 c 0,12,13
 429 76 429 76 386.5 99.5 c 128,-1,14
 344 123 344 123 311.5 123 c 128,-1,15
 279 123 279 123 258 99.5 c 128,-1,16
 237 76 237 76 218 26 c 0,17,18
 194 -36 194 -36 173 35 c 0,19,20
 148 123 148 123 144 346 c 0,0,1
442 563 m 0,21,22
 358 701 358 701 307 680 c 128,-1,23
 256 659 256 659 256 486 c 0,24,25
 256 410 256 410 294.5 375 c 128,-1,26
 333 340 333 340 384 371 c 0,27,28
 442 406 442 406 458 458.5 c 128,-1,29
 474 511 474 511 442 563 c 0,21,22
EndSplineSet
Validated: 545
EndChar

StartChar: U+0073
Encoding: 115 115 86
Width: 1024
Flags: W
LayerCount: 2
Back
Fore
SplineSet
147 448 m 2,0,1
 159 722 159 722 181 723 c 0,2,3
 194 724 194 724 215 626 c 0,4,5
 219 607 219 607 224 582 c 0,6,7
 234 530 234 530 239.5 502 c 128,-1,8
 245 474 245 474 254.5 441 c 128,-1,9
 264 408 264 408 268.5 393.5 c 128,-1,10
 273 379 273 379 286 365.5 c 128,-1,11
 299 352 299 352 306 350.5 c 128,-1,12
 313 349 313 349 332.5 354 c 128,-1,13
 352 359 352 359 365.5 369 c 128,-1,14
 379 379 379 379 408 402 c 128,-1,15
 437 425 437 425 460 446 c 128,-1,16
 483 467 483 467 525 506 c 0,17,18
 648 619 648 619 687 639 c 0,19,20
 732 662 732 662 746 615 c 0,21,22
 760 565 760 565 751 337 c 0,23,24
 750 319 750 319 749 294 c 0,25,26
 737 21 737 21 715 19 c 0,27,28
 702 18 702 18 681 116 c 0,29,30
 677 136 677 136 672 160 c 0,31,32
 662 212 662 212 656.5 240.5 c 128,-1,33
 651 269 651 269 641.5 301.5 c 128,-1,34
 632 334 632 334 627.5 348.5 c 128,-1,35
 623 363 623 363 610 376.5 c 128,-1,36
 597 390 597 390 590 392 c 128,-1,37
 583 394 583 394 563.5 388.5 c 128,-1,38
 544 383 544 383 530.5 373 c 128,-1,39
 517 363 517 363 488 340.5 c 128,-1,40
 459 318 459 318 436 297 c 128,-1,41
 413 276 413 276 371 237 c 0,42,43
 248 123 248 123 209 104 c 0,44,45
 164 81 164 81 150 128 c 0,46,47
 136 177 136 177 145 405 c 2,48,-1
 147 448 l 2,0,1
EndSplineSet
Validated: 545
EndChar

StartChar: U+0074
Encoding: 116 116 87
Width: 1024
Flags: W
LayerCount: 2
Back
Fore
SplineSet
179 531 m 0,0,1
 227 588 227 588 274 641 c 128,-1,2
 321 694 321 694 357.5 733 c 128,-1,3
 394 772 394 772 418.5 795.5 c 128,-1,4
 443 819 443 819 448 819 c 0,5,6
 458 819 458 819 539 732.5 c 128,-1,7
 620 646 620 646 717 531 c 0,8,9
 881 336 881 336 865 331 c 0,10,11
 852 326 852 326 736 416 c 0,12,13
 703 442 703 442 680 458.5 c 128,-1,14
 657 475 657 475 634 488 c 128,-1,15
 611 501 611 501 596.5 507 c 128,-1,16
 582 513 582 513 567.5 512 c 128,-1,17
 553 511 553 511 544.5 504.5 c 128,-1,18
 536 498 536 498 527.5 480.5 c 128,-1,19
 519 463 519 463 514.5 442 c 128,-1,20
 510 421 510 421 505.5 386.5 c 128,-1,21
 501 352 501 352 498.5 315 c 128,-1,22
 496 278 496 278 493 224 c 2,23,-1
 474 -141 l 1,24,-1
 422 218 l 2,25,26
 413 282 413 282 405.5 324.5 c 128,-1,27
 398 367 398 367 388 403 c 128,-1,28
 378 439 378 439 368.5 458.5 c 128,-1,29
 359 478 359 478 343.5 489 c 128,-1,30
 328 500 328 500 312 499 c 128,-1,31
 296 498 296 498 271 487 c 128,-1,32
 246 476 246 476 219.5 457.5 c 128,-1,33
 193 439 193 439 154 410 c 0,34,35
 43 325 43 325 43 346 c 0,36,37
 43 370 43 370 179 531 c 0,0,1
EndSplineSet
Validated: 545
EndChar

StartChar: U+0075
Encoding: 117 117 88
Width: 1024
Flags: W
LayerCount: 2
Back
Fore
SplineSet
147 339 m 2,0,1
 139 541 139 541 163 680 c 128,-1,2
 187 819 187 819 230 819 c 0,3,4
 283 819 283 819 347 781 c 128,-1,5
 411 743 411 743 470 681.5 c 128,-1,6
 529 620 529 620 583.5 540.5 c 128,-1,7
 638 461 638 461 674.5 381.5 c 128,-1,8
 711 302 711 302 726.5 223.5 c 128,-1,9
 742 145 742 145 727 90 c 0,10,11
 691 -45 691 -45 677 -47 c 0,12,13
 667 -49 667 -49 661 11 c 0,14,15
 657 52 657 52 653 134 c 0,16,17
 647 250 647 250 589.5 372.5 c 128,-1,18
 532 495 532 495 454 557 c 0,19,20
 415 588 415 588 387 602.5 c 128,-1,21
 359 617 359 617 335 615 c 128,-1,22
 311 613 311 613 294.5 594 c 128,-1,23
 278 575 278 575 264 532.5 c 128,-1,24
 250 490 250 490 239 430.5 c 128,-1,25
 228 371 228 371 218 282 c 2,26,-1
 166 -141 l 1,27,-1
 147 339 l 2,0,1
EndSplineSet
Validated: 545
EndChar

StartChar: U+0076
Encoding: 118 118 89
Width: 1024
Flags: W
LayerCount: 2
Back
Fore
SplineSet
326 698 m 0,0,1
 371 770 371 770 427 770 c 128,-1,2
 483 770 483 770 570 698 c 0,3,4
 637 641 637 641 713 630 c 128,-1,5
 789 619 789 619 832 659 c 0,6,7
 881 705 881 705 879 676 c 0,8,9
 877 654 877 654 845 595 c 0,10,11
 807 528 807 528 746 502 c 128,-1,12
 685 476 685 476 634 506 c 0,13,14
 602 524 602 524 571 491 c 128,-1,15
 540 458 540 458 519 385 c 128,-1,16
 498 312 498 312 493 218 c 2,17,-1
 474 -141 l 1,18,-1
 422 211 l 2,19,20
 409 306 409 306 381.5 378.5 c 128,-1,21
 354 451 354 451 320.5 483.5 c 128,-1,22
 287 516 287 516 256 499 c 0,23,24
 224 484 224 484 186.5 489 c 128,-1,25
 149 494 149 494 111.5 519.5 c 128,-1,26
 74 545 74 545 51 582 c 0,27,28
 10 650 10 650 24 667 c 128,-1,29
 38 684 38 684 102 646 c 0,30,31
 160 612 160 612 226 627.5 c 128,-1,32
 292 643 292 643 326 698 c 0,0,1
EndSplineSet
Validated: 545
EndChar

StartChar: U+0077
Encoding: 119 119 90
Width: 1024
Flags: W
LayerCount: 2
Back
Fore
SplineSet
128 358 m 2,0,1
 128 714 128 714 220 789.5 c 128,-1,2
 312 865 312 865 488 653 c 0,3,4
 556 569 556 569 529.5 465.5 c 128,-1,5
 503 362 503 362 371 198 c 2,6,-1
 128 -102 l 1,7,-1
 128 358 l 2,0,1
442 563 m 0,8,9
 358 701 358 701 307 680 c 128,-1,10
 256 659 256 659 256 486 c 0,11,12
 256 410 256 410 294.5 375 c 128,-1,13
 333 340 333 340 384 371 c 0,14,15
 442 406 442 406 458 458.5 c 128,-1,16
 474 511 474 511 442 563 c 0,8,9
EndSplineSet
Validated: 545
EndChar

StartChar: U+0078
Encoding: 120 120 91
Width: 1024
Flags: W
LayerCount: 2
Back
Fore
SplineSet
147 627 m 0,0,1
 0 805 0 805 -1 820 c 0,2,3
 -2 827 -2 827 14 818 c 0,4,5
 39 804 39 804 160 710 c 0,6,7
 211 671 211 671 244 648 c 128,-1,8
 277 625 277 625 304 612 c 128,-1,9
 331 599 331 599 346.5 599 c 128,-1,10
 362 599 362 599 373 612 c 128,-1,11
 384 625 384 625 389 648 c 128,-1,12
 394 671 394 671 397 710 c 0,13,14
 402 775 402 775 411 796 c 128,-1,15
 420 817 420 817 435 798 c 128,-1,16
 450 779 450 779 474 717 c 0,17,18
 493 666 493 666 514 642.5 c 128,-1,19
 535 619 535 619 567.5 619 c 128,-1,20
 600 619 600 619 642.5 642.5 c 128,-1,21
 685 666 685 666 749 717 c 0,22,23
 873 815 873 815 875 799 c 0,24,25
 876 783 876 783 736 614 c 0,26,27
 640 499 640 499 572.5 353 c 128,-1,28
 505 207 505 207 499 102 c 0,29,30
 491 -62 491 -62 481 -69 c 0,31,32
 477 -71 477 -71 471 -59 c 0,33,34
 460 -34 460 -34 422 115 c 0,35,36
 396 221 396 221 315 371.5 c 128,-1,37
 234 522 234 522 147 627 c 0,0,1
EndSplineSet
Validated: 545
EndChar

StartChar: U+0079
Encoding: 121 121 92
Width: 1024
Flags: W
LayerCount: 2
Back
Fore
SplineSet
19 333 m 0,0,1
 12 504 12 504 28.5 610.5 c 128,-1,2
 45 717 45 717 86.5 768 c 128,-1,3
 128 819 128 819 199 807.5 c 128,-1,4
 270 796 270 796 368.5 730 c 128,-1,5
 467 664 467 664 602 538 c 0,6,7
 756 394 756 394 848 209 c 0,8,9
 922 60 922 60 904 -11 c 0,10,11
 886 -80 886 -80 784 -24 c 0,12,13
 776 -19 776 -19 768 -14 c 0,14,15
 710 21 710 21 692.5 74 c 128,-1,16
 675 127 675 127 704 179 c 0,17,18
 719 211 719 211 714 248.5 c 128,-1,19
 709 286 709 286 683.5 323.5 c 128,-1,20
 658 361 658 361 621 384 c 0,21,22
 550 427 550 427 536 404 c 0,23,24
 527 389 527 389 550 352 c 0,25,26
 582 302 582 302 569 212 c 128,-1,27
 556 122 556 122 506 45 c 0,28,29
 438 -58 438 -58 409 -34 c 0,30,31
 379 -6 379 -6 371 179 c 0,32,33
 366 314 366 314 368 443.5 c 128,-1,34
 370 573 370 573 378 627 c 0,35,36
 388 696 388 696 362 694 c 0,37,38
 336 691 336 691 275 627 c 0,39,40
 224 573 224 573 172 443.5 c 128,-1,41
 120 314 120 314 96 179 c 0,42,43
 70 33 70 33 54 33 c 0,44,45
 31 32 31 32 19 333 c 0,0,1
EndSplineSet
Validated: 545
EndChar

StartChar: U+007A
Encoding: 122 122 93
Width: 1024
Flags: W
LayerCount: 2
Back
Fore
SplineSet
269 640 m 0,0,1
 331 712 331 712 378.5 736.5 c 128,-1,2
 426 761 426 761 476 746 c 128,-1,3
 526 731 526 731 595 672 c 0,4,5
 768 525 768 525 640 377.5 c 128,-1,6
 512 230 512 230 640 77 c 0,7,8
 712 -10 712 -10 706.5 -15.5 c 128,-1,9
 701 -21 701 -21 614 51 c 0,10,11
 540 113 540 113 449 105 c 128,-1,12
 358 97 358 97 262 19 c 0,13,14
 134 -85 134 -85 130 -73 c 0,15,16
 127 -61 127 -61 230 70 c 0,17,18
 321 186 321 186 327 254 c 128,-1,19
 333 322 333 322 256 371 c 0,20,21
 181 419 181 419 184 481.5 c 128,-1,22
 187 544 187 544 269 640 c 0,0,1
569.5 429 m 128,-1,24
 601 484 601 484 587 536.5 c 128,-1,25
 573 589 573 589 518.5 620.5 c 128,-1,26
 464 652 464 652 411 638 c 128,-1,27
 358 624 358 624 326.5 569.5 c 128,-1,28
 295 515 295 515 309 462 c 128,-1,29
 323 409 323 409 377.5 377.5 c 128,-1,30
 432 346 432 346 485 360 c 128,-1,23
 538 374 538 374 569.5 429 c 128,-1,24
EndSplineSet
Validated: 545
EndChar

StartChar: U+007B
Encoding: 123 123 94
Width: 1024
Flags: W
LayerCount: 2
Back
Fore
SplineSet
160 467 m 0,0,1
 228 492 228 492 285.5 423.5 c 128,-1,2
 343 355 343 355 360 230 c 0,3,4
 368 166 368 166 383 113 c 128,-1,5
 398 60 398 60 416.5 25 c 128,-1,6
 435 -10 435 -10 456 -34 c 128,-1,7
 477 -58 477 -58 498.5 -63.5 c 128,-1,8
 520 -69 520 -69 540.5 -63.5 c 128,-1,9
 561 -58 561 -58 579 -34 c 128,-1,10
 597 -10 597 -10 610.5 25 c 128,-1,11
 624 60 624 60 632 113 c 128,-1,12
 640 166 640 166 640 230 c 0,13,14
 640 403 640 403 684 460.5 c 128,-1,15
 728 518 728 518 832 480 c 0,16,17
 883 461 883 461 927.5 403 c 128,-1,18
 972 345 972 345 998 264.5 c 128,-1,19
 1024 184 1024 184 1024 102 c 0,20,21
 1024 38 1024 38 1019 -2.5 c 128,-1,22
 1014 -43 1014 -43 1003.5 -79 c 128,-1,23
 993 -115 993 -115 966.5 -135 c 128,-1,24
 940 -155 940 -155 907.5 -170.5 c 128,-1,25
 875 -186 875 -186 814.5 -192.5 c 128,-1,26
 754 -199 754 -199 686.5 -202 c 128,-1,27
 619 -205 619 -205 512 -205 c 0,28,29
 419 -205 419 -205 357 -203.5 c 128,-1,30
 295 -202 295 -202 238 -195.5 c 128,-1,31
 181 -189 181 -189 147 -180.5 c 128,-1,32
 113 -172 113 -172 83.5 -154.5 c 128,-1,33
 54 -137 54 -137 40 -116.5 c 128,-1,34
 26 -96 26 -96 15.5 -62 c 128,-1,35
 5 -28 5 -28 2.5 9.5 c 128,-1,36
 0 47 0 47 0 102 c 0,37,38
 0 227 0 227 47.5 335.5 c 128,-1,39
 95 444 95 444 160 467 c 0,0,1
704 691 m 0,40,41
 671 747 671 747 705 783 c 128,-1,42
 739 819 739 819 825.5 819 c 128,-1,43
 912 819 912 819 968 783 c 128,-1,44
 1024 747 1024 747 1024 691 c 0,45,46
 1024 634 1024 634 990.5 598.5 c 128,-1,47
 957 563 957 563 902.5 563 c 128,-1,48
 848 563 848 563 793.5 598.5 c 128,-1,49
 739 634 739 634 704 691 c 0,40,41
0 691 m 0,50,51
 0 747 0 747 56 783 c 128,-1,52
 112 819 112 819 198.5 819 c 128,-1,53
 285 819 285 819 319 783 c 128,-1,54
 353 747 353 747 320 691 c 0,55,56
 297 653 297 653 264.5 624 c 128,-1,57
 232 595 232 595 195 579 c 128,-1,58
 158 563 158 563 121.5 563 c 128,-1,59
 85 563 85 563 57.5 579 c 128,-1,60
 30 595 30 595 15 624 c 128,-1,61
 0 653 0 653 0 691 c 0,50,51
EndSplineSet
Validated: 545
EndChar

StartChar: U+007C
Encoding: 124 124 95
Width: 1024
Flags: W
LayerCount: 2
Back
Fore
SplineSet
0 -13 m 0,0,1
 0 101 0 101 46 146 c 128,-1,2
 92 191 92 191 174 159.5 c 128,-1,3
 256 128 256 128 358 26 c 0,4,5
 445 -61 445 -61 512 -61 c 128,-1,6
 579 -61 579 -61 666 26 c 0,7,8
 768 128 768 128 850 159.5 c 128,-1,9
 932 191 932 191 978 146 c 128,-1,10
 1024 101 1024 101 1024 -13 c 0,11,12
 1024 -83 1024 -83 973 -124.5 c 128,-1,13
 922 -166 922 -166 811 -185.5 c 128,-1,14
 700 -205 700 -205 512 -205 c 128,-1,15
 324 -205 324 -205 213 -185.5 c 128,-1,16
 102 -166 102 -166 51 -124.5 c 128,-1,17
 0 -83 0 -83 0 -13 c 0,0,1
640 506 m 0,18,19
 640 601 640 601 663.5 672 c 128,-1,20
 687 743 687 743 730.5 781 c 128,-1,21
 774 819 774 819 832 819 c 0,22,23
 908 819 908 819 966 745.5 c 128,-1,24
 1024 672 1024 672 1024 576 c 128,-1,25
 1024 480 1024 480 966 385 c 128,-1,26
 908 290 908 290 832 262 c 0,27,28
 726 224 726 224 683 278.5 c 128,-1,29
 640 333 640 333 640 506 c 0,18,19
0 576 m 128,-1,31
 0 672 0 672 58 745.5 c 128,-1,32
 116 819 116 819 192 819 c 0,33,34
 280 819 280 819 332 734.5 c 128,-1,35
 384 650 384 650 384 506 c 0,36,37
 384 333 384 333 341 278.5 c 128,-1,38
 298 224 298 224 192 262 c 0,39,40
 116 290 116 290 58 385 c 128,-1,30
 0 480 0 480 0 576 c 128,-1,31
EndSplineSet
Validated: 545
EndChar

StartChar: U+007D
Encoding: 125 125 96
Width: 1024
Flags: W
LayerCount: 2
Back
Fore
SplineSet
0 -13 m 0,0,1
 0 101 0 101 46 146 c 128,-1,2
 92 191 92 191 174 159.5 c 128,-1,3
 256 128 256 128 358 26 c 0,4,5
 445 -61 445 -61 512 -61 c 128,-1,6
 579 -61 579 -61 666 26 c 0,7,8
 768 128 768 128 850 159.5 c 128,-1,9
 932 191 932 191 978 146 c 128,-1,10
 1024 101 1024 101 1024 -13 c 0,11,12
 1024 -83 1024 -83 973 -124.5 c 128,-1,13
 922 -166 922 -166 811 -185.5 c 128,-1,14
 700 -205 700 -205 512 -205 c 128,-1,15
 324 -205 324 -205 213 -185.5 c 128,-1,16
 102 -166 102 -166 51 -124.5 c 128,-1,17
 0 -83 0 -83 0 -13 c 0,0,1
640 371.5 m 128,-1,19
 640 452 640 452 693 481 c 128,-1,20
 746 510 746 510 832 478 c 0,21,22
 892 455 892 455 928.5 437.5 c 128,-1,23
 965 420 965 420 985 403 c 128,-1,24
 1005 386 1005 386 1005 371.5 c 128,-1,25
 1005 357 1005 357 985 339.5 c 128,-1,26
 965 322 965 322 928.5 304.5 c 128,-1,27
 892 287 892 287 832 265 c 0,28,29
 746 232 746 232 693 261.5 c 128,-1,18
 640 291 640 291 640 371.5 c 128,-1,19
141 450 m 0,30,31
 179 474 179 474 203.5 489 c 128,-1,32
 228 504 228 504 254 517.5 c 128,-1,33
 280 531 280 531 295 538 c 128,-1,34
 310 545 310 545 326 547.5 c 128,-1,35
 342 550 342 550 349 548 c 128,-1,36
 356 546 356 546 364.5 537 c 128,-1,37
 373 528 373 528 375.5 516.5 c 128,-1,38
 378 505 378 505 380.5 483.5 c 128,-1,39
 383 462 383 462 383.5 440.5 c 128,-1,40
 384 419 384 419 384 384 c 0,41,42
 384 294 384 294 329.5 263.5 c 128,-1,43
 275 233 275 233 179 269 c 0,44,45
 114 293 114 293 83 311.5 c 128,-1,46
 52 330 52 330 47.5 351 c 128,-1,47
 43 372 43 372 65.5 394.5 c 128,-1,48
 88 417 88 417 141 450 c 0,30,31
704 691 m 0,49,50
 671 747 671 747 705 783 c 128,-1,51
 739 819 739 819 825.5 819 c 128,-1,52
 912 819 912 819 968 783 c 128,-1,53
 1024 747 1024 747 1024 691 c 0,54,55
 1024 634 1024 634 990.5 598.5 c 128,-1,56
 957 563 957 563 902.5 563 c 128,-1,57
 848 563 848 563 793.5 598.5 c 128,-1,58
 739 634 739 634 704 691 c 0,49,50
0 691 m 0,59,60
 0 747 0 747 56 783 c 128,-1,61
 112 819 112 819 198.5 819 c 128,-1,62
 285 819 285 819 319 783 c 128,-1,63
 353 747 353 747 320 691 c 0,64,65
 297 653 297 653 264.5 624 c 128,-1,66
 232 595 232 595 195 579 c 128,-1,67
 158 563 158 563 121.5 563 c 128,-1,68
 85 563 85 563 57.5 579 c 128,-1,69
 30 595 30 595 15 624 c 128,-1,70
 0 653 0 653 0 691 c 0,59,60
EndSplineSet
Validated: 545
EndChar

StartChar: U+007E
Encoding: 126 126 97
Width: 1024
Flags: W
LayerCount: 2
Back
Fore
SplineSet
0 307 m 2,0,1
 0 446 0 446 18 564 c 128,-1,2
 36 682 36 682 67 750.5 c 128,-1,3
 98 819 98 819 134 819 c 0,4,5
 189 819 189 819 202.5 777.5 c 128,-1,6
 216 736 216 736 179 678 c 0,7,8
 90 538 90 538 358 621 c 0,9,10
 434 644 434 644 491 649 c 128,-1,11
 548 654 548 654 582 642 c 128,-1,12
 616 630 616 630 628 602.5 c 128,-1,13
 640 575 640 575 629 536 c 128,-1,14
 618 497 618 497 582 444.5 c 128,-1,15
 546 392 546 392 486 333 c 0,16,17
 333 179 333 179 474 179 c 0,18,19
 516 179 516 179 563 199 c 128,-1,20
 610 219 610 219 651.5 253.5 c 128,-1,21
 693 288 693 288 731.5 332 c 128,-1,22
 770 376 770 376 797.5 425 c 128,-1,23
 825 474 825 474 841 522 c 128,-1,24
 857 570 857 570 855.5 614.5 c 128,-1,25
 854 659 854 659 835 691 c 0,26,27
 801 746 801 746 816.5 782.5 c 128,-1,28
 832 819 832 819 890 819 c 0,29,30
 926 819 926 819 957 750.5 c 128,-1,31
 988 682 988 682 1006 564 c 128,-1,32
 1024 446 1024 446 1024 307 c 2,33,-1
 1024 -205 l 1,34,-1
 512 -205 l 1,35,-1
 0 -205 l 1,36,-1
 0 307 l 2,0,1
EndSplineSet
Validated: 545
EndChar
